<?xml version="1.0" encoding="UTF-8" standalone="no" ?>
<!DOCTYPE svg PUBLIC "-//W3C//DTD SVG 1.1//EN" "http://www.w3.org/Graphics/SVG/1.1/DTD/svg11.dtd">
<svg xmlns="http://www.w3.org/2000/svg" xmlns:xlink="http://www.w3.org/1999/xlink" version="1.1" width="339.7688108891732" height="121.78781252797523" viewBox="57.34263131595054 206.51836045464188 339.7688108891732 121.78781252797523" xml:space="preserve">
<desc>Created with Fabric.js 4.6.0</desc>
<defs>
</defs>
<g transform="matrix(0.19 0 0 0.19 63.51 212.69)" id="efTM9965l74w2Su1Op_tH"  >
<path style="stroke: rgb(67,231,232); stroke-width: 0; stroke-dasharray: none; stroke-linecap: butt; stroke-dashoffset: 0; stroke-linejoin: miter; stroke-miterlimit: 4; fill: rgb(0,0,0); fill-opacity: 0.44; fill-rule: nonzero; opacity: 1;" vector-effect="non-scaling-stroke"  transform=" translate(0, 0)" d="M 0 -33.054 C 18.24581 -33.054 33.054 -18.245810000000002 33.054 0 C 33.054 18.24581 18.245810000000002 33.054 0 33.054 C -18.24581 33.054 -33.054 18.245810000000002 -33.054 0 C -33.054 -18.24581 -18.245810000000002 -33.054 0 -33.054 z" stroke-linecap="round" />
</g>
<g transform="matrix(0.19 0 0 0.19 63.51 268.54)" id="tLlmk112v66cUZW6qDWUV"  >
<path style="stroke: rgb(67,231,232); stroke-width: 0; stroke-dasharray: none; stroke-linecap: butt; stroke-dashoffset: 0; stroke-linejoin: miter; stroke-miterlimit: 4; fill: rgb(0,0,0); fill-opacity: 0.44; fill-rule: nonzero; opacity: 1;" vector-effect="non-scaling-stroke"  transform=" translate(0, 0)" d="M 0 -33.054 C 18.24581 -33.054 33.054 -18.245810000000002 33.054 0 C 33.054 18.24581 18.245810000000002 33.054 0 33.054 C -18.24581 33.054 -33.054 18.245810000000002 -33.054 0 C -33.054 -18.24581 -18.245810000000002 -33.054 0 -33.054 z" stroke-linecap="round" />
</g>
<g transform="matrix(0.19 0 0 0.19 63.51 322.11)" id="K22IO90pxcc0h1_9Bg8qU"  >
<path style="stroke: rgb(67,231,232); stroke-width: 0; stroke-dasharray: none; stroke-linecap: butt; stroke-dashoffset: 0; stroke-linejoin: miter; stroke-miterlimit: 4; fill: rgb(0,0,0); fill-opacity: 0.44; fill-rule: nonzero; opacity: 1;" vector-effect="non-scaling-stroke"  transform=" translate(0, 0)" d="M 0 -33.054 C 18.24581 -33.054 33.054 -18.245810000000002 33.054 0 C 33.054 18.24581 18.245810000000002 33.054 0 33.054 C -18.24581 33.054 -33.054 18.245810000000002 -33.054 0 C -33.054 -18.24581 -18.245810000000002 -33.054 0 -33.054 z" stroke-linecap="round" />
</g>
<g transform="matrix(0.19 0 0 0.19 122.95 212.69)" id="3nYejV8ld7exzj-Ss58Yi"  >
<path style="stroke: rgb(67,231,232); stroke-width: 0; stroke-dasharray: none; stroke-linecap: butt; stroke-dashoffset: 0; stroke-linejoin: miter; stroke-miterlimit: 4; fill: rgb(0,0,0); fill-opacity: 0.44; fill-rule: nonzero; opacity: 1;" vector-effect="non-scaling-stroke"  transform=" translate(0, 0)" d="M 0 -33.054 C 18.24581 -33.054 33.054 -18.245810000000002 33.054 0 C 33.054 18.24581 18.245810000000002 33.054 0 33.054 C -18.24581 33.054 -33.054 18.245810000000002 -33.054 0 C -33.054 -18.24581 -18.245810000000002 -33.054 0 -33.054 z" stroke-linecap="round" />
</g>
<g transform="matrix(0.19 0 0 0.19 122.95 268.54)" id="XAJTB-r8VLOJphRhlgx8c"  >
<path style="stroke: rgb(67,231,232); stroke-width: 0; stroke-dasharray: none; stroke-linecap: butt; stroke-dashoffset: 0; stroke-linejoin: miter; stroke-miterlimit: 4; fill: rgb(0,0,0); fill-opacity: 0.44; fill-rule: nonzero; opacity: 1;" vector-effect="non-scaling-stroke"  transform=" translate(0, 0)" d="M 0 -33.054 C 18.24581 -33.054 33.054 -18.245810000000002 33.054 0 C 33.054 18.24581 18.245810000000002 33.054 0 33.054 C -18.24581 33.054 -33.054 18.245810000000002 -33.054 0 C -33.054 -18.24581 -18.245810000000002 -33.054 0 -33.054 z" stroke-linecap="round" />
</g>
<g transform="matrix(0.19 0 0 0.19 122.95 322.11)" id="B3-NM-z6SyUnJ0SZUN53t"  >
<path style="stroke: rgb(67,231,232); stroke-width: 0; stroke-dasharray: none; stroke-linecap: butt; stroke-dashoffset: 0; stroke-linejoin: miter; stroke-miterlimit: 4; fill: rgb(0,0,0); fill-opacity: 0.44; fill-rule: nonzero; opacity: 1;" vector-effect="non-scaling-stroke"  transform=" translate(0, 0)" d="M 0 -33.054 C 18.24581 -33.054 33.054 -18.245810000000002 33.054 0 C 33.054 18.24581 18.245810000000002 33.054 0 33.054 C -18.24581 33.054 -33.054 18.245810000000002 -33.054 0 C -33.054 -18.24581 -18.245810000000002 -33.054 0 -33.054 z" stroke-linecap="round" />
</g>
<g transform="matrix(0.19 0 0 0.19 192 212.71)" id="7mZJ3n3Q4Ifb_cwT0u0Rk"  >
<path style="stroke: rgb(67,231,232); stroke-width: 0; stroke-dasharray: none; stroke-linecap: butt; stroke-dashoffset: 0; stroke-linejoin: miter; stroke-miterlimit: 4; fill: rgb(0,0,0); fill-opacity: 0.44; fill-rule: nonzero; opacity: 1;" vector-effect="non-scaling-stroke"  transform=" translate(0, 0)" d="M 0 -33.054 C 18.24581 -33.054 33.054 -18.245810000000002 33.054 0 C 33.054 18.24581 18.245810000000002 33.054 0 33.054 C -18.24581 33.054 -33.054 18.245810000000002 -33.054 0 C -33.054 -18.24581 -18.245810000000002 -33.054 0 -33.054 z" stroke-linecap="round" />
</g>
<g transform="matrix(0.19 0 0 0.19 192 268.56)" id="kqOCtkmp2_SAtswdfc3UV"  >
<path style="stroke: rgb(67,231,232); stroke-width: 0; stroke-dasharray: none; stroke-linecap: butt; stroke-dashoffset: 0; stroke-linejoin: miter; stroke-miterlimit: 4; fill: rgb(0,0,0); fill-opacity: 0.44; fill-rule: nonzero; opacity: 1;" vector-effect="non-scaling-stroke"  transform=" translate(0, 0)" d="M 0 -33.054 C 18.24581 -33.054 33.054 -18.245810000000002 33.054 0 C 33.054 18.24581 18.245810000000002 33.054 0 33.054 C -18.24581 33.054 -33.054 18.245810000000002 -33.054 0 C -33.054 -18.24581 -18.245810000000002 -33.054 0 -33.054 z" stroke-linecap="round" />
</g>
<g transform="matrix(0.19 0 0 0.19 192 322.13)" id="vY51m7TK4Le3FbNmg4xAS"  >
<path style="stroke: rgb(67,231,232); stroke-width: 0; stroke-dasharray: none; stroke-linecap: butt; stroke-dashoffset: 0; stroke-linejoin: miter; stroke-miterlimit: 4; fill: rgb(0,0,0); fill-opacity: 0.44; fill-rule: nonzero; opacity: 1;" vector-effect="non-scaling-stroke"  transform=" translate(0, 0)" d="M 0 -33.054 C 18.24581 -33.054 33.054 -18.245810000000002 33.054 0 C 33.054 18.24581 18.245810000000002 33.054 0 33.054 C -18.24581 33.054 -33.054 18.245810000000002 -33.054 0 C -33.054 -18.24581 -18.245810000000002 -33.054 0 -33.054 z" stroke-linecap="round" />
</g>
<g transform="matrix(0.19 0 0 0.19 257.27 212.69)" id="iTFfOWkt9YbjGZ3nZmCf1"  >
<path style="stroke: rgb(67,231,232); stroke-width: 0; stroke-dasharray: none; stroke-linecap: butt; stroke-dashoffset: 0; stroke-linejoin: miter; stroke-miterlimit: 4; fill: rgb(0,0,0); fill-opacity: 0.44; fill-rule: nonzero; opacity: 1;" vector-effect="non-scaling-stroke"  transform=" translate(0, 0)" d="M 0 -33.054 C 18.24581 -33.054 33.054 -18.245810000000002 33.054 0 C 33.054 18.24581 18.245810000000002 33.054 0 33.054 C -18.24581 33.054 -33.054 18.245810000000002 -33.054 0 C -33.054 -18.24581 -18.245810000000002 -33.054 0 -33.054 z" stroke-linecap="round" />
</g>
<g transform="matrix(0.19 0 0 0.19 257.27 268.54)" id="SmTLlukFoEH78zAFm1_eg"  >
<path style="stroke: rgb(67,231,232); stroke-width: 0; stroke-dasharray: none; stroke-linecap: butt; stroke-dashoffset: 0; stroke-linejoin: miter; stroke-miterlimit: 4; fill: rgb(0,0,0); fill-opacity: 0.44; fill-rule: nonzero; opacity: 1;" vector-effect="non-scaling-stroke"  transform=" translate(0, 0)" d="M 0 -33.054 C 18.24581 -33.054 33.054 -18.245810000000002 33.054 0 C 33.054 18.24581 18.245810000000002 33.054 0 33.054 C -18.24581 33.054 -33.054 18.245810000000002 -33.054 0 C -33.054 -18.24581 -18.245810000000002 -33.054 0 -33.054 z" stroke-linecap="round" />
</g>
<g transform="matrix(0.19 0 0 0.19 257.27 322.11)" id="-GnuB5BDh3sd7FCVWCku9"  >
<path style="stroke: rgb(67,231,232); stroke-width: 0; stroke-dasharray: none; stroke-linecap: butt; stroke-dashoffset: 0; stroke-linejoin: miter; stroke-miterlimit: 4; fill: rgb(0,0,0); fill-opacity: 0.44; fill-rule: nonzero; opacity: 1;" vector-effect="non-scaling-stroke"  transform=" translate(0, 0)" d="M 0 -33.054 C 18.24581 -33.054 33.054 -18.245810000000002 33.054 0 C 33.054 18.24581 18.245810000000002 33.054 0 33.054 C -18.24581 33.054 -33.054 18.245810000000002 -33.054 0 C -33.054 -18.24581 -18.245810000000002 -33.054 0 -33.054 z" stroke-linecap="round" />
</g>
<g transform="matrix(0.19 0 0 0.19 323.57 212.69)" id="QWvF0UqlncmkjPwjZt17f"  >
<path style="stroke: rgb(67,231,232); stroke-width: 0; stroke-dasharray: none; stroke-linecap: butt; stroke-dashoffset: 0; stroke-linejoin: miter; stroke-miterlimit: 4; fill: rgb(0,0,0); fill-opacity: 0.44; fill-rule: nonzero; opacity: 1;" vector-effect="non-scaling-stroke"  transform=" translate(0, 0)" d="M 0 -33.054 C 18.24581 -33.054 33.054 -18.245810000000002 33.054 0 C 33.054 18.24581 18.245810000000002 33.054 0 33.054 C -18.24581 33.054 -33.054 18.245810000000002 -33.054 0 C -33.054 -18.24581 -18.245810000000002 -33.054 0 -33.054 z" stroke-linecap="round" />
</g>
<g transform="matrix(0.19 0 0 0.19 323.57 268.54)" id="kQApVr3AXXdjjFjsPkwpb"  >
<path style="stroke: rgb(67,231,232); stroke-width: 0; stroke-dasharray: none; stroke-linecap: butt; stroke-dashoffset: 0; stroke-linejoin: miter; stroke-miterlimit: 4; fill: rgb(0,0,0); fill-opacity: 0.44; fill-rule: nonzero; opacity: 1;" vector-effect="non-scaling-stroke"  transform=" translate(0, 0)" d="M 0 -33.054 C 18.24581 -33.054 33.054 -18.245810000000002 33.054 0 C 33.054 18.24581 18.245810000000002 33.054 0 33.054 C -18.24581 33.054 -33.054 18.245810000000002 -33.054 0 C -33.054 -18.24581 -18.245810000000002 -33.054 0 -33.054 z" stroke-linecap="round" />
</g>
<g transform="matrix(0.19 0 0 0.19 323.57 322.11)" id="KqPTrOIDGHMe6zsy0x07P"  >
<path style="stroke: rgb(67,231,232); stroke-width: 0; stroke-dasharray: none; stroke-linecap: butt; stroke-dashoffset: 0; stroke-linejoin: miter; stroke-miterlimit: 4; fill: rgb(0,0,0); fill-opacity: 0.44; fill-rule: nonzero; opacity: 1;" vector-effect="non-scaling-stroke"  transform=" translate(0, 0)" d="M 0 -33.054 C 18.24581 -33.054 33.054 -18.245810000000002 33.054 0 C 33.054 18.24581 18.245810000000002 33.054 0 33.054 C -18.24581 33.054 -33.054 18.245810000000002 -33.054 0 C -33.054 -18.24581 -18.245810000000002 -33.054 0 -33.054 z" stroke-linecap="round" />
</g>
<g transform="matrix(0.19 0 0 0.19 390.94 212.69)" id="cHIrfnNOASZB26Xt58bWA"  >
<path style="stroke: rgb(67,231,232); stroke-width: 0; stroke-dasharray: none; stroke-linecap: butt; stroke-dashoffset: 0; stroke-linejoin: miter; stroke-miterlimit: 4; fill: rgb(0,0,0); fill-opacity: 0.44; fill-rule: nonzero; opacity: 1;" vector-effect="non-scaling-stroke"  transform=" translate(0, 0)" d="M 0 -33.054 C 18.24581 -33.054 33.054 -18.245810000000002 33.054 0 C 33.054 18.24581 18.245810000000002 33.054 0 33.054 C -18.24581 33.054 -33.054 18.245810000000002 -33.054 0 C -33.054 -18.24581 -18.245810000000002 -33.054 0 -33.054 z" stroke-linecap="round" />
</g>
<g transform="matrix(0.19 0 0 0.19 390.94 268.54)" id="pZPzi_aMQhyma6joxzevm"  >
<path style="stroke: rgb(67,231,232); stroke-width: 0; stroke-dasharray: none; stroke-linecap: butt; stroke-dashoffset: 0; stroke-linejoin: miter; stroke-miterlimit: 4; fill: rgb(0,0,0); fill-opacity: 0.44; fill-rule: nonzero; opacity: 1;" vector-effect="non-scaling-stroke"  transform=" translate(0, 0)" d="M 0 -33.054 C 18.24581 -33.054 33.054 -18.245810000000002 33.054 0 C 33.054 18.24581 18.245810000000002 33.054 0 33.054 C -18.24581 33.054 -33.054 18.245810000000002 -33.054 0 C -33.054 -18.24581 -18.245810000000002 -33.054 0 -33.054 z" stroke-linecap="round" />
</g>
<g transform="matrix(0.19 0 0 0.19 390.94 322.11)" id="_dOUke90t0J1TT-uwCX9f"  >
<path style="stroke: rgb(67,231,232); stroke-width: 0; stroke-dasharray: none; stroke-linecap: butt; stroke-dashoffset: 0; stroke-linejoin: miter; stroke-miterlimit: 4; fill: rgb(0,0,0); fill-opacity: 0.44; fill-rule: nonzero; opacity: 1;" vector-effect="non-scaling-stroke"  transform=" translate(0, 0)" d="M 0 -33.054 C 18.24581 -33.054 33.054 -18.245810000000002 33.054 0 C 33.054 18.24581 18.245810000000002 33.054 0 33.054 C -18.24581 33.054 -33.054 18.245810000000002 -33.054 0 C -33.054 -18.24581 -18.245810000000002 -33.054 0 -33.054 z" stroke-linecap="round" />
</g>
</svg>