<?xml version="1.0" encoding="UTF-8" standalone="no" ?>
<!DOCTYPE svg PUBLIC "-//W3C//DTD SVG 1.1//EN" "http://www.w3.org/Graphics/SVG/1.1/DTD/svg11.dtd">
<svg xmlns="http://www.w3.org/2000/svg" xmlns:xlink="http://www.w3.org/1999/xlink" version="1.1" width="470.79017951907326" height="81.20995077455999" viewBox="19.34491168733294 176.45437128306924 470.79017951907326 81.20995077455999" xml:space="preserve">
<desc>Created with Fabric.js 4.6.0</desc>
<defs>
</defs>
<g transform="matrix(0.07 0 0 0.07 58.45 178.64)" id="PF9jdd8GEPTjmgiN5WCJ0"  >
<path style="stroke: rgb(67,231,232); stroke-width: 0; stroke-dasharray: none; stroke-linecap: butt; stroke-dashoffset: 0; stroke-linejoin: miter; stroke-miterlimit: 4; fill: rgb(0,0,0); fill-opacity: 0.44; fill-rule: nonzero; opacity: 1;" vector-effect="non-scaling-stroke"  transform=" translate(0, 0)" d="M 0 -33.054 C 18.24581 -33.054 33.054 -18.245810000000002 33.054 0 C 33.054 18.24581 18.245810000000002 33.054 0 33.054 C -18.24581 33.054 -33.054 18.245810000000002 -33.054 0 C -33.054 -18.24581 -18.245810000000002 -33.054 0 -33.054 z" stroke-linecap="round" />
</g>
<g transform="matrix(0.07 0 0 0.07 58.45 197.81)" id="l-1iNDea-M02m513d-VuC"  >
<path style="stroke: rgb(67,231,232); stroke-width: 0; stroke-dasharray: none; stroke-linecap: butt; stroke-dashoffset: 0; stroke-linejoin: miter; stroke-miterlimit: 4; fill: rgb(0,0,0); fill-opacity: 0.44; fill-rule: nonzero; opacity: 1;" vector-effect="non-scaling-stroke"  transform=" translate(0, 0)" d="M 0 -33.054 C 18.24581 -33.054 33.054 -18.245810000000002 33.054 0 C 33.054 18.24581 18.245810000000002 33.054 0 33.054 C -18.24581 33.054 -33.054 18.245810000000002 -33.054 0 C -33.054 -18.24581 -18.245810000000002 -33.054 0 -33.054 z" stroke-linecap="round" />
</g>
<g transform="matrix(0.07 0 0 0.07 58.45 216.76)" id="JHsLqQHRw93x-1ndoyX56"  >
<path style="stroke: rgb(67,231,232); stroke-width: 0; stroke-dasharray: none; stroke-linecap: butt; stroke-dashoffset: 0; stroke-linejoin: miter; stroke-miterlimit: 4; fill: rgb(0,0,0); fill-opacity: 0.44; fill-rule: nonzero; opacity: 1;" vector-effect="non-scaling-stroke"  transform=" translate(0, 0)" d="M 0 -33.054 C 18.24581 -33.054 33.054 -18.245810000000002 33.054 0 C 33.054 18.24581 18.245810000000002 33.054 0 33.054 C -18.24581 33.054 -33.054 18.245810000000002 -33.054 0 C -33.054 -18.24581 -18.245810000000002 -33.054 0 -33.054 z" stroke-linecap="round" />
</g>
<g transform="matrix(0.07 0 0 0.07 58.45 236.52)" id="1MatzS6q052kMD0GvOuTo"  >
<path style="stroke: rgb(67,231,232); stroke-width: 0; stroke-dasharray: none; stroke-linecap: butt; stroke-dashoffset: 0; stroke-linejoin: miter; stroke-miterlimit: 4; fill: rgb(0,0,0); fill-opacity: 0.44; fill-rule: nonzero; opacity: 1;" vector-effect="non-scaling-stroke"  transform=" translate(0, 0)" d="M 0 -33.054 C 18.24581 -33.054 33.054 -18.245810000000002 33.054 0 C 33.054 18.24581 18.245810000000002 33.054 0 33.054 C -18.24581 33.054 -33.054 18.245810000000002 -33.054 0 C -33.054 -18.24581 -18.245810000000002 -33.054 0 -33.054 z" stroke-linecap="round" />
</g>
<g transform="matrix(0.07 0 0 0.07 58.45 255.47)" id="MwIXYHyq3wH5zTP4ekTYc"  >
<path style="stroke: rgb(67,231,232); stroke-width: 0; stroke-dasharray: none; stroke-linecap: butt; stroke-dashoffset: 0; stroke-linejoin: miter; stroke-miterlimit: 4; fill: rgb(0,0,0); fill-opacity: 0.44; fill-rule: nonzero; opacity: 1;" vector-effect="non-scaling-stroke"  transform=" translate(0, 0)" d="M 0 -33.054 C 18.24581 -33.054 33.054 -18.245810000000002 33.054 0 C 33.054 18.24581 18.245810000000002 33.054 0 33.054 C -18.24581 33.054 -33.054 18.245810000000002 -33.054 0 C -33.054 -18.24581 -18.245810000000002 -33.054 0 -33.054 z" stroke-linecap="round" />
</g>
<g transform="matrix(0.07 0 0 0.07 77.88 178.64)" id="0RrvCPlMf1G3ABTgXUhEX"  >
<path style="stroke: rgb(67,231,232); stroke-width: 0; stroke-dasharray: none; stroke-linecap: butt; stroke-dashoffset: 0; stroke-linejoin: miter; stroke-miterlimit: 4; fill: rgb(0,0,0); fill-opacity: 0.44; fill-rule: nonzero; opacity: 1;" vector-effect="non-scaling-stroke"  transform=" translate(0, 0)" d="M 0 -33.054 C 18.24581 -33.054 33.054 -18.245810000000002 33.054 0 C 33.054 18.24581 18.245810000000002 33.054 0 33.054 C -18.24581 33.054 -33.054 18.245810000000002 -33.054 0 C -33.054 -18.24581 -18.245810000000002 -33.054 0 -33.054 z" stroke-linecap="round" />
</g>
<g transform="matrix(0.07 0 0 0.07 77.88 197.81)" id="0tSYCvVWdSHwqcfXOQ6pS"  >
<path style="stroke: rgb(67,231,232); stroke-width: 0; stroke-dasharray: none; stroke-linecap: butt; stroke-dashoffset: 0; stroke-linejoin: miter; stroke-miterlimit: 4; fill: rgb(0,0,0); fill-opacity: 0.44; fill-rule: nonzero; opacity: 1;" vector-effect="non-scaling-stroke"  transform=" translate(0, 0)" d="M 0 -33.054 C 18.24581 -33.054 33.054 -18.245810000000002 33.054 0 C 33.054 18.24581 18.245810000000002 33.054 0 33.054 C -18.24581 33.054 -33.054 18.245810000000002 -33.054 0 C -33.054 -18.24581 -18.245810000000002 -33.054 0 -33.054 z" stroke-linecap="round" />
</g>
<g transform="matrix(0.07 0 0 0.07 77.88 216.76)" id="IXfBQAhnsCVZ7CjEBfS1Y"  >
<path style="stroke: rgb(67,231,232); stroke-width: 0; stroke-dasharray: none; stroke-linecap: butt; stroke-dashoffset: 0; stroke-linejoin: miter; stroke-miterlimit: 4; fill: rgb(0,0,0); fill-opacity: 0.44; fill-rule: nonzero; opacity: 1;" vector-effect="non-scaling-stroke"  transform=" translate(0, 0)" d="M 0 -33.054 C 18.24581 -33.054 33.054 -18.245810000000002 33.054 0 C 33.054 18.24581 18.245810000000002 33.054 0 33.054 C -18.24581 33.054 -33.054 18.245810000000002 -33.054 0 C -33.054 -18.24581 -18.245810000000002 -33.054 0 -33.054 z" stroke-linecap="round" />
</g>
<g transform="matrix(0.07 0 0 0.07 77.88 236.52)" id="GzjOXbILfjH0nhh2MfRf6"  >
<path style="stroke: rgb(67,231,232); stroke-width: 0; stroke-dasharray: none; stroke-linecap: butt; stroke-dashoffset: 0; stroke-linejoin: miter; stroke-miterlimit: 4; fill: rgb(0,0,0); fill-opacity: 0.44; fill-rule: nonzero; opacity: 1;" vector-effect="non-scaling-stroke"  transform=" translate(0, 0)" d="M 0 -33.054 C 18.24581 -33.054 33.054 -18.245810000000002 33.054 0 C 33.054 18.24581 18.245810000000002 33.054 0 33.054 C -18.24581 33.054 -33.054 18.245810000000002 -33.054 0 C -33.054 -18.24581 -18.245810000000002 -33.054 0 -33.054 z" stroke-linecap="round" />
</g>
<g transform="matrix(0.07 0 0 0.07 77.88 255.48)" id="cOZD3TeUvQy6dpWM1alZa"  >
<path style="stroke: rgb(67,231,232); stroke-width: 0; stroke-dasharray: none; stroke-linecap: butt; stroke-dashoffset: 0; stroke-linejoin: miter; stroke-miterlimit: 4; fill: rgb(0,0,0); fill-opacity: 0.44; fill-rule: nonzero; opacity: 1;" vector-effect="non-scaling-stroke"  transform=" translate(0, 0)" d="M 0 -33.054 C 18.24581 -33.054 33.054 -18.245810000000002 33.054 0 C 33.054 18.24581 18.245810000000002 33.054 0 33.054 C -18.24581 33.054 -33.054 18.245810000000002 -33.054 0 C -33.054 -18.24581 -18.245810000000002 -33.054 0 -33.054 z" stroke-linecap="round" />
</g>
<g transform="matrix(0.07 0 0 0.07 100.96 178.64)" id="bVSNk60RvtWnU3rfm6KWP"  >
<path style="stroke: rgb(67,231,232); stroke-width: 0; stroke-dasharray: none; stroke-linecap: butt; stroke-dashoffset: 0; stroke-linejoin: miter; stroke-miterlimit: 4; fill: rgb(0,0,0); fill-opacity: 0.44; fill-rule: nonzero; opacity: 1;" vector-effect="non-scaling-stroke"  transform=" translate(0, 0)" d="M 0 -33.054 C 18.24581 -33.054 33.054 -18.245810000000002 33.054 0 C 33.054 18.24581 18.245810000000002 33.054 0 33.054 C -18.24581 33.054 -33.054 18.245810000000002 -33.054 0 C -33.054 -18.24581 -18.245810000000002 -33.054 0 -33.054 z" stroke-linecap="round" />
</g>
<g transform="matrix(0.07 0 0 0.07 100.96 197.81)" id="UbSnQLYWjsXHx-asKtYwj"  >
<path style="stroke: rgb(67,231,232); stroke-width: 0; stroke-dasharray: none; stroke-linecap: butt; stroke-dashoffset: 0; stroke-linejoin: miter; stroke-miterlimit: 4; fill: rgb(0,0,0); fill-opacity: 0.44; fill-rule: nonzero; opacity: 1;" vector-effect="non-scaling-stroke"  transform=" translate(0, 0)" d="M 0 -33.054 C 18.24581 -33.054 33.054 -18.245810000000002 33.054 0 C 33.054 18.24581 18.245810000000002 33.054 0 33.054 C -18.24581 33.054 -33.054 18.245810000000002 -33.054 0 C -33.054 -18.24581 -18.245810000000002 -33.054 0 -33.054 z" stroke-linecap="round" />
</g>
<g transform="matrix(0.07 0 0 0.07 100.96 216.76)" id="efTM9965l74w2Su1Op_tH"  >
<path style="stroke: rgb(67,231,232); stroke-width: 0; stroke-dasharray: none; stroke-linecap: butt; stroke-dashoffset: 0; stroke-linejoin: miter; stroke-miterlimit: 4; fill: rgb(0,0,0); fill-opacity: 0.44; fill-rule: nonzero; opacity: 1;" vector-effect="non-scaling-stroke"  transform=" translate(0, 0)" d="M 0 -33.054 C 18.24581 -33.054 33.054 -18.245810000000002 33.054 0 C 33.054 18.24581 18.245810000000002 33.054 0 33.054 C -18.24581 33.054 -33.054 18.245810000000002 -33.054 0 C -33.054 -18.24581 -18.245810000000002 -33.054 0 -33.054 z" stroke-linecap="round" />
</g>
<g transform="matrix(0.07 0 0 0.07 100.96 236.52)" id="tLlmk112v66cUZW6qDWUV"  >
<path style="stroke: rgb(67,231,232); stroke-width: 0; stroke-dasharray: none; stroke-linecap: butt; stroke-dashoffset: 0; stroke-linejoin: miter; stroke-miterlimit: 4; fill: rgb(0,0,0); fill-opacity: 0.44; fill-rule: nonzero; opacity: 1;" vector-effect="non-scaling-stroke"  transform=" translate(0, 0)" d="M 0 -33.054 C 18.24581 -33.054 33.054 -18.245810000000002 33.054 0 C 33.054 18.24581 18.245810000000002 33.054 0 33.054 C -18.24581 33.054 -33.054 18.245810000000002 -33.054 0 C -33.054 -18.24581 -18.245810000000002 -33.054 0 -33.054 z" stroke-linecap="round" />
</g>
<g transform="matrix(0.07 0 0 0.07 100.96 255.47)" id="K22IO90pxcc0h1_9Bg8qU"  >
<path style="stroke: rgb(67,231,232); stroke-width: 0; stroke-dasharray: none; stroke-linecap: butt; stroke-dashoffset: 0; stroke-linejoin: miter; stroke-miterlimit: 4; fill: rgb(0,0,0); fill-opacity: 0.44; fill-rule: nonzero; opacity: 1;" vector-effect="non-scaling-stroke"  transform=" translate(0, 0)" d="M 0 -33.054 C 18.24581 -33.054 33.054 -18.245810000000002 33.054 0 C 33.054 18.24581 18.245810000000002 33.054 0 33.054 C -18.24581 33.054 -33.054 18.245810000000002 -33.054 0 C -33.054 -18.24581 -18.245810000000002 -33.054 0 -33.054 z" stroke-linecap="round" />
</g>
<g transform="matrix(0.07 0 0 0.07 121.99 178.64)" id="nLBOeacbBgTtUbb1rgCgV"  >
<path style="stroke: rgb(67,231,232); stroke-width: 0; stroke-dasharray: none; stroke-linecap: butt; stroke-dashoffset: 0; stroke-linejoin: miter; stroke-miterlimit: 4; fill: rgb(0,0,0); fill-opacity: 0.44; fill-rule: nonzero; opacity: 1;" vector-effect="non-scaling-stroke"  transform=" translate(0, 0)" d="M 0 -33.054 C 18.24581 -33.054 33.054 -18.245810000000002 33.054 0 C 33.054 18.24581 18.245810000000002 33.054 0 33.054 C -18.24581 33.054 -33.054 18.245810000000002 -33.054 0 C -33.054 -18.24581 -18.245810000000002 -33.054 0 -33.054 z" stroke-linecap="round" />
</g>
<g transform="matrix(0.07 0 0 0.07 121.99 197.81)" id="r04_brl3bEZ5Lr7y3KocG"  >
<path style="stroke: rgb(67,231,232); stroke-width: 0; stroke-dasharray: none; stroke-linecap: butt; stroke-dashoffset: 0; stroke-linejoin: miter; stroke-miterlimit: 4; fill: rgb(0,0,0); fill-opacity: 0.44; fill-rule: nonzero; opacity: 1;" vector-effect="non-scaling-stroke"  transform=" translate(0, 0)" d="M 0 -33.054 C 18.24581 -33.054 33.054 -18.245810000000002 33.054 0 C 33.054 18.24581 18.245810000000002 33.054 0 33.054 C -18.24581 33.054 -33.054 18.245810000000002 -33.054 0 C -33.054 -18.24581 -18.245810000000002 -33.054 0 -33.054 z" stroke-linecap="round" />
</g>
<g transform="matrix(0.07 0 0 0.07 121.99 216.76)" id="3nYejV8ld7exzj-Ss58Yi"  >
<path style="stroke: rgb(67,231,232); stroke-width: 0; stroke-dasharray: none; stroke-linecap: butt; stroke-dashoffset: 0; stroke-linejoin: miter; stroke-miterlimit: 4; fill: rgb(0,0,0); fill-opacity: 0.44; fill-rule: nonzero; opacity: 1;" vector-effect="non-scaling-stroke"  transform=" translate(0, 0)" d="M 0 -33.054 C 18.24581 -33.054 33.054 -18.245810000000002 33.054 0 C 33.054 18.24581 18.245810000000002 33.054 0 33.054 C -18.24581 33.054 -33.054 18.245810000000002 -33.054 0 C -33.054 -18.24581 -18.245810000000002 -33.054 0 -33.054 z" stroke-linecap="round" />
</g>
<g transform="matrix(0.07 0 0 0.07 121.99 236.52)" id="XAJTB-r8VLOJphRhlgx8c"  >
<path style="stroke: rgb(67,231,232); stroke-width: 0; stroke-dasharray: none; stroke-linecap: butt; stroke-dashoffset: 0; stroke-linejoin: miter; stroke-miterlimit: 4; fill: rgb(0,0,0); fill-opacity: 0.44; fill-rule: nonzero; opacity: 1;" vector-effect="non-scaling-stroke"  transform=" translate(0, 0)" d="M 0 -33.054 C 18.24581 -33.054 33.054 -18.245810000000002 33.054 0 C 33.054 18.24581 18.245810000000002 33.054 0 33.054 C -18.24581 33.054 -33.054 18.245810000000002 -33.054 0 C -33.054 -18.24581 -18.245810000000002 -33.054 0 -33.054 z" stroke-linecap="round" />
</g>
<g transform="matrix(0.07 0 0 0.07 121.99 255.47)" id="B3-NM-z6SyUnJ0SZUN53t"  >
<path style="stroke: rgb(67,231,232); stroke-width: 0; stroke-dasharray: none; stroke-linecap: butt; stroke-dashoffset: 0; stroke-linejoin: miter; stroke-miterlimit: 4; fill: rgb(0,0,0); fill-opacity: 0.44; fill-rule: nonzero; opacity: 1;" vector-effect="non-scaling-stroke"  transform=" translate(0, 0)" d="M 0 -33.054 C 18.24581 -33.054 33.054 -18.245810000000002 33.054 0 C 33.054 18.24581 18.245810000000002 33.054 0 33.054 C -18.24581 33.054 -33.054 18.245810000000002 -33.054 0 C -33.054 -18.24581 -18.245810000000002 -33.054 0 -33.054 z" stroke-linecap="round" />
</g>
<g transform="matrix(0.07 0 0 0.07 146.42 178.65)" id="iwjj6IWMukz3kuzpY9iHD"  >
<path style="stroke: rgb(67,231,232); stroke-width: 0; stroke-dasharray: none; stroke-linecap: butt; stroke-dashoffset: 0; stroke-linejoin: miter; stroke-miterlimit: 4; fill: rgb(0,0,0); fill-opacity: 0.44; fill-rule: nonzero; opacity: 1;" vector-effect="non-scaling-stroke"  transform=" translate(0, 0)" d="M 0 -33.054 C 18.24581 -33.054 33.054 -18.245810000000002 33.054 0 C 33.054 18.24581 18.245810000000002 33.054 0 33.054 C -18.24581 33.054 -33.054 18.245810000000002 -33.054 0 C -33.054 -18.24581 -18.245810000000002 -33.054 0 -33.054 z" stroke-linecap="round" />
</g>
<g transform="matrix(0.07 0 0 0.07 146.42 197.81)" id="RJOSZeF8NOkHiUoOE_-Wa"  >
<path style="stroke: rgb(67,231,232); stroke-width: 0; stroke-dasharray: none; stroke-linecap: butt; stroke-dashoffset: 0; stroke-linejoin: miter; stroke-miterlimit: 4; fill: rgb(0,0,0); fill-opacity: 0.44; fill-rule: nonzero; opacity: 1;" vector-effect="non-scaling-stroke"  transform=" translate(0, 0)" d="M 0 -33.054 C 18.24581 -33.054 33.054 -18.245810000000002 33.054 0 C 33.054 18.24581 18.245810000000002 33.054 0 33.054 C -18.24581 33.054 -33.054 18.245810000000002 -33.054 0 C -33.054 -18.24581 -18.245810000000002 -33.054 0 -33.054 z" stroke-linecap="round" />
</g>
<g transform="matrix(0.07 0 0 0.07 146.42 216.77)" id="7mZJ3n3Q4Ifb_cwT0u0Rk"  >
<path style="stroke: rgb(67,231,232); stroke-width: 0; stroke-dasharray: none; stroke-linecap: butt; stroke-dashoffset: 0; stroke-linejoin: miter; stroke-miterlimit: 4; fill: rgb(0,0,0); fill-opacity: 0.44; fill-rule: nonzero; opacity: 1;" vector-effect="non-scaling-stroke"  transform=" translate(0, 0)" d="M 0 -33.054 C 18.24581 -33.054 33.054 -18.245810000000002 33.054 0 C 33.054 18.24581 18.245810000000002 33.054 0 33.054 C -18.24581 33.054 -33.054 18.245810000000002 -33.054 0 C -33.054 -18.24581 -18.245810000000002 -33.054 0 -33.054 z" stroke-linecap="round" />
</g>
<g transform="matrix(0.07 0 0 0.07 146.42 236.53)" id="kqOCtkmp2_SAtswdfc3UV"  >
<path style="stroke: rgb(67,231,232); stroke-width: 0; stroke-dasharray: none; stroke-linecap: butt; stroke-dashoffset: 0; stroke-linejoin: miter; stroke-miterlimit: 4; fill: rgb(0,0,0); fill-opacity: 0.44; fill-rule: nonzero; opacity: 1;" vector-effect="non-scaling-stroke"  transform=" translate(0, 0)" d="M 0 -33.054 C 18.24581 -33.054 33.054 -18.245810000000002 33.054 0 C 33.054 18.24581 18.245810000000002 33.054 0 33.054 C -18.24581 33.054 -33.054 18.245810000000002 -33.054 0 C -33.054 -18.24581 -18.245810000000002 -33.054 0 -33.054 z" stroke-linecap="round" />
</g>
<g transform="matrix(0.07 0 0 0.07 146.42 255.48)" id="vY51m7TK4Le3FbNmg4xAS"  >
<path style="stroke: rgb(67,231,232); stroke-width: 0; stroke-dasharray: none; stroke-linecap: butt; stroke-dashoffset: 0; stroke-linejoin: miter; stroke-miterlimit: 4; fill: rgb(0,0,0); fill-opacity: 0.44; fill-rule: nonzero; opacity: 1;" vector-effect="non-scaling-stroke"  transform=" translate(0, 0)" d="M 0 -33.054 C 18.24581 -33.054 33.054 -18.245810000000002 33.054 0 C 33.054 18.24581 18.245810000000002 33.054 0 33.054 C -18.24581 33.054 -33.054 18.245810000000002 -33.054 0 C -33.054 -18.24581 -18.245810000000002 -33.054 0 -33.054 z" stroke-linecap="round" />
</g>
<g transform="matrix(0.07 0 0 0.07 169.51 178.64)" id="4okN5BpDsnI4V4QQdMOyh"  >
<path style="stroke: rgb(67,231,232); stroke-width: 0; stroke-dasharray: none; stroke-linecap: butt; stroke-dashoffset: 0; stroke-linejoin: miter; stroke-miterlimit: 4; fill: rgb(0,0,0); fill-opacity: 0.44; fill-rule: nonzero; opacity: 1;" vector-effect="non-scaling-stroke"  transform=" translate(0, 0)" d="M 0 -33.054 C 18.24581 -33.054 33.054 -18.245810000000002 33.054 0 C 33.054 18.24581 18.245810000000002 33.054 0 33.054 C -18.24581 33.054 -33.054 18.245810000000002 -33.054 0 C -33.054 -18.24581 -18.245810000000002 -33.054 0 -33.054 z" stroke-linecap="round" />
</g>
<g transform="matrix(0.07 0 0 0.07 169.51 197.81)" id="lDXnkXfWUvmoBSmvS3xMB"  >
<path style="stroke: rgb(67,231,232); stroke-width: 0; stroke-dasharray: none; stroke-linecap: butt; stroke-dashoffset: 0; stroke-linejoin: miter; stroke-miterlimit: 4; fill: rgb(0,0,0); fill-opacity: 0.44; fill-rule: nonzero; opacity: 1;" vector-effect="non-scaling-stroke"  transform=" translate(0, 0)" d="M 0 -33.054 C 18.24581 -33.054 33.054 -18.245810000000002 33.054 0 C 33.054 18.24581 18.245810000000002 33.054 0 33.054 C -18.24581 33.054 -33.054 18.245810000000002 -33.054 0 C -33.054 -18.24581 -18.245810000000002 -33.054 0 -33.054 z" stroke-linecap="round" />
</g>
<g transform="matrix(0.07 0 0 0.07 169.51 216.76)" id="iTFfOWkt9YbjGZ3nZmCf1"  >
<path style="stroke: rgb(67,231,232); stroke-width: 0; stroke-dasharray: none; stroke-linecap: butt; stroke-dashoffset: 0; stroke-linejoin: miter; stroke-miterlimit: 4; fill: rgb(0,0,0); fill-opacity: 0.44; fill-rule: nonzero; opacity: 1;" vector-effect="non-scaling-stroke"  transform=" translate(0, 0)" d="M 0 -33.054 C 18.24581 -33.054 33.054 -18.245810000000002 33.054 0 C 33.054 18.24581 18.245810000000002 33.054 0 33.054 C -18.24581 33.054 -33.054 18.245810000000002 -33.054 0 C -33.054 -18.24581 -18.245810000000002 -33.054 0 -33.054 z" stroke-linecap="round" />
</g>
<g transform="matrix(0.07 0 0 0.07 169.51 236.52)" id="SmTLlukFoEH78zAFm1_eg"  >
<path style="stroke: rgb(67,231,232); stroke-width: 0; stroke-dasharray: none; stroke-linecap: butt; stroke-dashoffset: 0; stroke-linejoin: miter; stroke-miterlimit: 4; fill: rgb(0,0,0); fill-opacity: 0.44; fill-rule: nonzero; opacity: 1;" vector-effect="non-scaling-stroke"  transform=" translate(0, 0)" d="M 0 -33.054 C 18.24581 -33.054 33.054 -18.245810000000002 33.054 0 C 33.054 18.24581 18.245810000000002 33.054 0 33.054 C -18.24581 33.054 -33.054 18.245810000000002 -33.054 0 C -33.054 -18.24581 -18.245810000000002 -33.054 0 -33.054 z" stroke-linecap="round" />
</g>
<g transform="matrix(0.07 0 0 0.07 169.51 255.47)" id="-GnuB5BDh3sd7FCVWCku9"  >
<path style="stroke: rgb(67,231,232); stroke-width: 0; stroke-dasharray: none; stroke-linecap: butt; stroke-dashoffset: 0; stroke-linejoin: miter; stroke-miterlimit: 4; fill: rgb(0,0,0); fill-opacity: 0.44; fill-rule: nonzero; opacity: 1;" vector-effect="non-scaling-stroke"  transform=" translate(0, 0)" d="M 0 -33.054 C 18.24581 -33.054 33.054 -18.245810000000002 33.054 0 C 33.054 18.24581 18.245810000000002 33.054 0 33.054 C -18.24581 33.054 -33.054 18.245810000000002 -33.054 0 C -33.054 -18.24581 -18.245810000000002 -33.054 0 -33.054 z" stroke-linecap="round" />
</g>
<g transform="matrix(0.07 0 0 0.07 192.97 178.64)" id="p5Jb4ADiFm8eowvp9FDvs"  >
<path style="stroke: rgb(67,231,232); stroke-width: 0; stroke-dasharray: none; stroke-linecap: butt; stroke-dashoffset: 0; stroke-linejoin: miter; stroke-miterlimit: 4; fill: rgb(0,0,0); fill-opacity: 0.44; fill-rule: nonzero; opacity: 1;" vector-effect="non-scaling-stroke"  transform=" translate(0, 0)" d="M 0 -33.054 C 18.24581 -33.054 33.054 -18.245810000000002 33.054 0 C 33.054 18.24581 18.245810000000002 33.054 0 33.054 C -18.24581 33.054 -33.054 18.245810000000002 -33.054 0 C -33.054 -18.24581 -18.245810000000002 -33.054 0 -33.054 z" stroke-linecap="round" />
</g>
<g transform="matrix(0.07 0 0 0.07 192.97 197.81)" id="pvnJk5UaIt6xmeig4sKML"  >
<path style="stroke: rgb(67,231,232); stroke-width: 0; stroke-dasharray: none; stroke-linecap: butt; stroke-dashoffset: 0; stroke-linejoin: miter; stroke-miterlimit: 4; fill: rgb(0,0,0); fill-opacity: 0.44; fill-rule: nonzero; opacity: 1;" vector-effect="non-scaling-stroke"  transform=" translate(0, 0)" d="M 0 -33.054 C 18.24581 -33.054 33.054 -18.245810000000002 33.054 0 C 33.054 18.24581 18.245810000000002 33.054 0 33.054 C -18.24581 33.054 -33.054 18.245810000000002 -33.054 0 C -33.054 -18.24581 -18.245810000000002 -33.054 0 -33.054 z" stroke-linecap="round" />
</g>
<g transform="matrix(0.07 0 0 0.07 192.97 216.76)" id="QWvF0UqlncmkjPwjZt17f"  >
<path style="stroke: rgb(67,231,232); stroke-width: 0; stroke-dasharray: none; stroke-linecap: butt; stroke-dashoffset: 0; stroke-linejoin: miter; stroke-miterlimit: 4; fill: rgb(0,0,0); fill-opacity: 0.44; fill-rule: nonzero; opacity: 1;" vector-effect="non-scaling-stroke"  transform=" translate(0, 0)" d="M 0 -33.054 C 18.24581 -33.054 33.054 -18.245810000000002 33.054 0 C 33.054 18.24581 18.245810000000002 33.054 0 33.054 C -18.24581 33.054 -33.054 18.245810000000002 -33.054 0 C -33.054 -18.24581 -18.245810000000002 -33.054 0 -33.054 z" stroke-linecap="round" />
</g>
<g transform="matrix(0.07 0 0 0.07 192.97 236.52)" id="kQApVr3AXXdjjFjsPkwpb"  >
<path style="stroke: rgb(67,231,232); stroke-width: 0; stroke-dasharray: none; stroke-linecap: butt; stroke-dashoffset: 0; stroke-linejoin: miter; stroke-miterlimit: 4; fill: rgb(0,0,0); fill-opacity: 0.44; fill-rule: nonzero; opacity: 1;" vector-effect="non-scaling-stroke"  transform=" translate(0, 0)" d="M 0 -33.054 C 18.24581 -33.054 33.054 -18.245810000000002 33.054 0 C 33.054 18.24581 18.245810000000002 33.054 0 33.054 C -18.24581 33.054 -33.054 18.245810000000002 -33.054 0 C -33.054 -18.24581 -18.245810000000002 -33.054 0 -33.054 z" stroke-linecap="round" />
</g>
<g transform="matrix(0.07 0 0 0.07 192.97 255.47)" id="KqPTrOIDGHMe6zsy0x07P"  >
<path style="stroke: rgb(67,231,232); stroke-width: 0; stroke-dasharray: none; stroke-linecap: butt; stroke-dashoffset: 0; stroke-linejoin: miter; stroke-miterlimit: 4; fill: rgb(0,0,0); fill-opacity: 0.44; fill-rule: nonzero; opacity: 1;" vector-effect="non-scaling-stroke"  transform=" translate(0, 0)" d="M 0 -33.054 C 18.24581 -33.054 33.054 -18.245810000000002 33.054 0 C 33.054 18.24581 18.245810000000002 33.054 0 33.054 C -18.24581 33.054 -33.054 18.245810000000002 -33.054 0 C -33.054 -18.24581 -18.245810000000002 -33.054 0 -33.054 z" stroke-linecap="round" />
</g>
<g transform="matrix(0.07 0 0 0.07 216.8 178.64)" id="YzahaD5AIn8vejF7rCdJN"  >
<path style="stroke: rgb(67,231,232); stroke-width: 0; stroke-dasharray: none; stroke-linecap: butt; stroke-dashoffset: 0; stroke-linejoin: miter; stroke-miterlimit: 4; fill: rgb(0,0,0); fill-opacity: 0.44; fill-rule: nonzero; opacity: 1;" vector-effect="non-scaling-stroke"  transform=" translate(0, 0)" d="M 0 -33.054 C 18.24581 -33.054 33.054 -18.245810000000002 33.054 0 C 33.054 18.24581 18.245810000000002 33.054 0 33.054 C -18.24581 33.054 -33.054 18.245810000000002 -33.054 0 C -33.054 -18.24581 -18.245810000000002 -33.054 0 -33.054 z" stroke-linecap="round" />
</g>
<g transform="matrix(0.07 0 0 0.07 216.8 197.81)" id="fI9Utwyd5tQJBliTWG4tL"  >
<path style="stroke: rgb(67,231,232); stroke-width: 0; stroke-dasharray: none; stroke-linecap: butt; stroke-dashoffset: 0; stroke-linejoin: miter; stroke-miterlimit: 4; fill: rgb(0,0,0); fill-opacity: 0.44; fill-rule: nonzero; opacity: 1;" vector-effect="non-scaling-stroke"  transform=" translate(0, 0)" d="M 0 -33.054 C 18.24581 -33.054 33.054 -18.245810000000002 33.054 0 C 33.054 18.24581 18.245810000000002 33.054 0 33.054 C -18.24581 33.054 -33.054 18.245810000000002 -33.054 0 C -33.054 -18.24581 -18.245810000000002 -33.054 0 -33.054 z" stroke-linecap="round" />
</g>
<g transform="matrix(0.07 0 0 0.07 216.8 216.76)" id="cHIrfnNOASZB26Xt58bWA"  >
<path style="stroke: rgb(67,231,232); stroke-width: 0; stroke-dasharray: none; stroke-linecap: butt; stroke-dashoffset: 0; stroke-linejoin: miter; stroke-miterlimit: 4; fill: rgb(0,0,0); fill-opacity: 0.44; fill-rule: nonzero; opacity: 1;" vector-effect="non-scaling-stroke"  transform=" translate(0, 0)" d="M 0 -33.054 C 18.24581 -33.054 33.054 -18.245810000000002 33.054 0 C 33.054 18.24581 18.245810000000002 33.054 0 33.054 C -18.24581 33.054 -33.054 18.245810000000002 -33.054 0 C -33.054 -18.24581 -18.245810000000002 -33.054 0 -33.054 z" stroke-linecap="round" />
</g>
<g transform="matrix(0.07 0 0 0.07 216.8 236.52)" id="pZPzi_aMQhyma6joxzevm"  >
<path style="stroke: rgb(67,231,232); stroke-width: 0; stroke-dasharray: none; stroke-linecap: butt; stroke-dashoffset: 0; stroke-linejoin: miter; stroke-miterlimit: 4; fill: rgb(0,0,0); fill-opacity: 0.44; fill-rule: nonzero; opacity: 1;" vector-effect="non-scaling-stroke"  transform=" translate(0, 0)" d="M 0 -33.054 C 18.24581 -33.054 33.054 -18.245810000000002 33.054 0 C 33.054 18.24581 18.245810000000002 33.054 0 33.054 C -18.24581 33.054 -33.054 18.245810000000002 -33.054 0 C -33.054 -18.24581 -18.245810000000002 -33.054 0 -33.054 z" stroke-linecap="round" />
</g>
<g transform="matrix(0.07 0 0 0.07 216.8 255.47)" id="_dOUke90t0J1TT-uwCX9f"  >
<path style="stroke: rgb(67,231,232); stroke-width: 0; stroke-dasharray: none; stroke-linecap: butt; stroke-dashoffset: 0; stroke-linejoin: miter; stroke-miterlimit: 4; fill: rgb(0,0,0); fill-opacity: 0.44; fill-rule: nonzero; opacity: 1;" vector-effect="non-scaling-stroke"  transform=" translate(0, 0)" d="M 0 -33.054 C 18.24581 -33.054 33.054 -18.245810000000002 33.054 0 C 33.054 18.24581 18.245810000000002 33.054 0 33.054 C -18.24581 33.054 -33.054 18.245810000000002 -33.054 0 C -33.054 -18.24581 -18.245810000000002 -33.054 0 -33.054 z" stroke-linecap="round" />
</g>
<g transform="matrix(0.07 0 0 0.07 239.89 178.64)" id="KJoV2AFDDJ-TSL9-JOLHL"  >
<path style="stroke: rgb(67,231,232); stroke-width: 0; stroke-dasharray: none; stroke-linecap: butt; stroke-dashoffset: 0; stroke-linejoin: miter; stroke-miterlimit: 4; fill: rgb(0,0,0); fill-opacity: 0.44; fill-rule: nonzero; opacity: 1;" vector-effect="non-scaling-stroke"  transform=" translate(0, 0)" d="M 0 -33.054 C 18.24581 -33.054 33.054 -18.245810000000002 33.054 0 C 33.054 18.24581 18.245810000000002 33.054 0 33.054 C -18.24581 33.054 -33.054 18.245810000000002 -33.054 0 C -33.054 -18.24581 -18.245810000000002 -33.054 0 -33.054 z" stroke-linecap="round" />
</g>
<g transform="matrix(0.07 0 0 0.07 239.89 197.81)" id="Aw0qTBl1sTih_9UwrsFs-"  >
<path style="stroke: rgb(67,231,232); stroke-width: 0; stroke-dasharray: none; stroke-linecap: butt; stroke-dashoffset: 0; stroke-linejoin: miter; stroke-miterlimit: 4; fill: rgb(0,0,0); fill-opacity: 0.44; fill-rule: nonzero; opacity: 1;" vector-effect="non-scaling-stroke"  transform=" translate(0, 0)" d="M 0 -33.054 C 18.24581 -33.054 33.054 -18.245810000000002 33.054 0 C 33.054 18.24581 18.245810000000002 33.054 0 33.054 C -18.24581 33.054 -33.054 18.245810000000002 -33.054 0 C -33.054 -18.24581 -18.245810000000002 -33.054 0 -33.054 z" stroke-linecap="round" />
</g>
<g transform="matrix(0.07 0 0 0.07 239.89 216.76)" id="NlGvJAqNLObOIOm1CUVVE"  >
<path style="stroke: rgb(67,231,232); stroke-width: 0; stroke-dasharray: none; stroke-linecap: butt; stroke-dashoffset: 0; stroke-linejoin: miter; stroke-miterlimit: 4; fill: rgb(0,0,0); fill-opacity: 0.44; fill-rule: nonzero; opacity: 1;" vector-effect="non-scaling-stroke"  transform=" translate(0, 0)" d="M 0 -33.054 C 18.24581 -33.054 33.054 -18.245810000000002 33.054 0 C 33.054 18.24581 18.245810000000002 33.054 0 33.054 C -18.24581 33.054 -33.054 18.245810000000002 -33.054 0 C -33.054 -18.24581 -18.245810000000002 -33.054 0 -33.054 z" stroke-linecap="round" />
</g>
<g transform="matrix(0.07 0 0 0.07 239.89 236.52)" id="il6kHeiAPCkQPwtPa1fvA"  >
<path style="stroke: rgb(67,231,232); stroke-width: 0; stroke-dasharray: none; stroke-linecap: butt; stroke-dashoffset: 0; stroke-linejoin: miter; stroke-miterlimit: 4; fill: rgb(0,0,0); fill-opacity: 0.44; fill-rule: nonzero; opacity: 1;" vector-effect="non-scaling-stroke"  transform=" translate(0, 0)" d="M 0 -33.054 C 18.24581 -33.054 33.054 -18.245810000000002 33.054 0 C 33.054 18.24581 18.245810000000002 33.054 0 33.054 C -18.24581 33.054 -33.054 18.245810000000002 -33.054 0 C -33.054 -18.24581 -18.245810000000002 -33.054 0 -33.054 z" stroke-linecap="round" />
</g>
<g transform="matrix(0.07 0 0 0.07 239.89 255.47)" id="OI8hvpZTxB823o6uyVXe3"  >
<path style="stroke: rgb(67,231,232); stroke-width: 0; stroke-dasharray: none; stroke-linecap: butt; stroke-dashoffset: 0; stroke-linejoin: miter; stroke-miterlimit: 4; fill: rgb(0,0,0); fill-opacity: 0.44; fill-rule: nonzero; opacity: 1;" vector-effect="non-scaling-stroke"  transform=" translate(0, 0)" d="M 0 -33.054 C 18.24581 -33.054 33.054 -18.245810000000002 33.054 0 C 33.054 18.24581 18.245810000000002 33.054 0 33.054 C -18.24581 33.054 -33.054 18.245810000000002 -33.054 0 C -33.054 -18.24581 -18.245810000000002 -33.054 0 -33.054 z" stroke-linecap="round" />
</g>
<g transform="matrix(0.07 0 0 0.07 260.91 178.64)" id="mL-bvPtdDuB651TQrWoc2"  >
<path style="stroke: rgb(67,231,232); stroke-width: 0; stroke-dasharray: none; stroke-linecap: butt; stroke-dashoffset: 0; stroke-linejoin: miter; stroke-miterlimit: 4; fill: rgb(0,0,0); fill-opacity: 0.44; fill-rule: nonzero; opacity: 1;" vector-effect="non-scaling-stroke"  transform=" translate(0, 0)" d="M 0 -33.054 C 18.24581 -33.054 33.054 -18.245810000000002 33.054 0 C 33.054 18.24581 18.245810000000002 33.054 0 33.054 C -18.24581 33.054 -33.054 18.245810000000002 -33.054 0 C -33.054 -18.24581 -18.245810000000002 -33.054 0 -33.054 z" stroke-linecap="round" />
</g>
<g transform="matrix(0.07 0 0 0.07 260.91 197.81)" id="yWjFUg9krimWf5TNEkLE_"  >
<path style="stroke: rgb(67,231,232); stroke-width: 0; stroke-dasharray: none; stroke-linecap: butt; stroke-dashoffset: 0; stroke-linejoin: miter; stroke-miterlimit: 4; fill: rgb(0,0,0); fill-opacity: 0.44; fill-rule: nonzero; opacity: 1;" vector-effect="non-scaling-stroke"  transform=" translate(0, 0)" d="M 0 -33.054 C 18.24581 -33.054 33.054 -18.245810000000002 33.054 0 C 33.054 18.24581 18.245810000000002 33.054 0 33.054 C -18.24581 33.054 -33.054 18.245810000000002 -33.054 0 C -33.054 -18.24581 -18.245810000000002 -33.054 0 -33.054 z" stroke-linecap="round" />
</g>
<g transform="matrix(0.07 0 0 0.07 260.91 216.76)" id="bwRaOCP_O0C7GnnCcPYyD"  >
<path style="stroke: rgb(67,231,232); stroke-width: 0; stroke-dasharray: none; stroke-linecap: butt; stroke-dashoffset: 0; stroke-linejoin: miter; stroke-miterlimit: 4; fill: rgb(0,0,0); fill-opacity: 0.44; fill-rule: nonzero; opacity: 1;" vector-effect="non-scaling-stroke"  transform=" translate(0, 0)" d="M 0 -33.054 C 18.24581 -33.054 33.054 -18.245810000000002 33.054 0 C 33.054 18.24581 18.245810000000002 33.054 0 33.054 C -18.24581 33.054 -33.054 18.245810000000002 -33.054 0 C -33.054 -18.24581 -18.245810000000002 -33.054 0 -33.054 z" stroke-linecap="round" />
</g>
<g transform="matrix(0.07 0 0 0.07 260.91 236.52)" id="LwsmxTtiI2uO5WP3snCgT"  >
<path style="stroke: rgb(67,231,232); stroke-width: 0; stroke-dasharray: none; stroke-linecap: butt; stroke-dashoffset: 0; stroke-linejoin: miter; stroke-miterlimit: 4; fill: rgb(0,0,0); fill-opacity: 0.44; fill-rule: nonzero; opacity: 1;" vector-effect="non-scaling-stroke"  transform=" translate(0, 0)" d="M 0 -33.054 C 18.24581 -33.054 33.054 -18.245810000000002 33.054 0 C 33.054 18.24581 18.245810000000002 33.054 0 33.054 C -18.24581 33.054 -33.054 18.245810000000002 -33.054 0 C -33.054 -18.24581 -18.245810000000002 -33.054 0 -33.054 z" stroke-linecap="round" />
</g>
<g transform="matrix(0.07 0 0 0.07 260.91 255.47)" id="eZ1Y0sx_v0-Wctnjmw2F8"  >
<path style="stroke: rgb(67,231,232); stroke-width: 0; stroke-dasharray: none; stroke-linecap: butt; stroke-dashoffset: 0; stroke-linejoin: miter; stroke-miterlimit: 4; fill: rgb(0,0,0); fill-opacity: 0.44; fill-rule: nonzero; opacity: 1;" vector-effect="non-scaling-stroke"  transform=" translate(0, 0)" d="M 0 -33.054 C 18.24581 -33.054 33.054 -18.245810000000002 33.054 0 C 33.054 18.24581 18.245810000000002 33.054 0 33.054 C -18.24581 33.054 -33.054 18.245810000000002 -33.054 0 C -33.054 -18.24581 -18.245810000000002 -33.054 0 -33.054 z" stroke-linecap="round" />
</g>
<g transform="matrix(0.07 0 0 0.07 285.34 178.65)" id="fp7bn_ANGGCfGOT9VuVV3"  >
<path style="stroke: rgb(67,231,232); stroke-width: 0; stroke-dasharray: none; stroke-linecap: butt; stroke-dashoffset: 0; stroke-linejoin: miter; stroke-miterlimit: 4; fill: rgb(0,0,0); fill-opacity: 0.44; fill-rule: nonzero; opacity: 1;" vector-effect="non-scaling-stroke"  transform=" translate(0, 0)" d="M 0 -33.054 C 18.24581 -33.054 33.054 -18.245810000000002 33.054 0 C 33.054 18.24581 18.245810000000002 33.054 0 33.054 C -18.24581 33.054 -33.054 18.245810000000002 -33.054 0 C -33.054 -18.24581 -18.245810000000002 -33.054 0 -33.054 z" stroke-linecap="round" />
</g>
<g transform="matrix(0.07 0 0 0.07 285.34 197.81)" id="K3QhdHzfJYTlEEb99UIQW"  >
<path style="stroke: rgb(67,231,232); stroke-width: 0; stroke-dasharray: none; stroke-linecap: butt; stroke-dashoffset: 0; stroke-linejoin: miter; stroke-miterlimit: 4; fill: rgb(0,0,0); fill-opacity: 0.44; fill-rule: nonzero; opacity: 1;" vector-effect="non-scaling-stroke"  transform=" translate(0, 0)" d="M 0 -33.054 C 18.24581 -33.054 33.054 -18.245810000000002 33.054 0 C 33.054 18.24581 18.245810000000002 33.054 0 33.054 C -18.24581 33.054 -33.054 18.245810000000002 -33.054 0 C -33.054 -18.24581 -18.245810000000002 -33.054 0 -33.054 z" stroke-linecap="round" />
</g>
<g transform="matrix(0.07 0 0 0.07 285.34 216.77)" id="aReBNvqR4vW1NJW-wHPRu"  >
<path style="stroke: rgb(67,231,232); stroke-width: 0; stroke-dasharray: none; stroke-linecap: butt; stroke-dashoffset: 0; stroke-linejoin: miter; stroke-miterlimit: 4; fill: rgb(0,0,0); fill-opacity: 0.44; fill-rule: nonzero; opacity: 1;" vector-effect="non-scaling-stroke"  transform=" translate(0, 0)" d="M 0 -33.054 C 18.24581 -33.054 33.054 -18.245810000000002 33.054 0 C 33.054 18.24581 18.245810000000002 33.054 0 33.054 C -18.24581 33.054 -33.054 18.245810000000002 -33.054 0 C -33.054 -18.24581 -18.245810000000002 -33.054 0 -33.054 z" stroke-linecap="round" />
</g>
<g transform="matrix(0.07 0 0 0.07 285.34 236.53)" id="E_W49fs7j31MdMcBk7YEu"  >
<path style="stroke: rgb(67,231,232); stroke-width: 0; stroke-dasharray: none; stroke-linecap: butt; stroke-dashoffset: 0; stroke-linejoin: miter; stroke-miterlimit: 4; fill: rgb(0,0,0); fill-opacity: 0.44; fill-rule: nonzero; opacity: 1;" vector-effect="non-scaling-stroke"  transform=" translate(0, 0)" d="M 0 -33.054 C 18.24581 -33.054 33.054 -18.245810000000002 33.054 0 C 33.054 18.24581 18.245810000000002 33.054 0 33.054 C -18.24581 33.054 -33.054 18.245810000000002 -33.054 0 C -33.054 -18.24581 -18.245810000000002 -33.054 0 -33.054 z" stroke-linecap="round" />
</g>
<g transform="matrix(0.07 0 0 0.07 285.34 255.48)" id="WAQUxDsP7W8nALdx94nVA"  >
<path style="stroke: rgb(67,231,232); stroke-width: 0; stroke-dasharray: none; stroke-linecap: butt; stroke-dashoffset: 0; stroke-linejoin: miter; stroke-miterlimit: 4; fill: rgb(0,0,0); fill-opacity: 0.44; fill-rule: nonzero; opacity: 1;" vector-effect="non-scaling-stroke"  transform=" translate(0, 0)" d="M 0 -33.054 C 18.24581 -33.054 33.054 -18.245810000000002 33.054 0 C 33.054 18.24581 18.245810000000002 33.054 0 33.054 C -18.24581 33.054 -33.054 18.245810000000002 -33.054 0 C -33.054 -18.24581 -18.245810000000002 -33.054 0 -33.054 z" stroke-linecap="round" />
</g>
<g transform="matrix(0.07 0 0 0.07 308.43 178.64)" id="Su-xZbYeYR1rDtvkyWJbf"  >
<path style="stroke: rgb(67,231,232); stroke-width: 0; stroke-dasharray: none; stroke-linecap: butt; stroke-dashoffset: 0; stroke-linejoin: miter; stroke-miterlimit: 4; fill: rgb(0,0,0); fill-opacity: 0.44; fill-rule: nonzero; opacity: 1;" vector-effect="non-scaling-stroke"  transform=" translate(0, 0)" d="M 0 -33.054 C 18.24581 -33.054 33.054 -18.245810000000002 33.054 0 C 33.054 18.24581 18.245810000000002 33.054 0 33.054 C -18.24581 33.054 -33.054 18.245810000000002 -33.054 0 C -33.054 -18.24581 -18.245810000000002 -33.054 0 -33.054 z" stroke-linecap="round" />
</g>
<g transform="matrix(0.07 0 0 0.07 308.43 197.81)" id="5q-PLSQoZ8z8k9StddXDL"  >
<path style="stroke: rgb(67,231,232); stroke-width: 0; stroke-dasharray: none; stroke-linecap: butt; stroke-dashoffset: 0; stroke-linejoin: miter; stroke-miterlimit: 4; fill: rgb(0,0,0); fill-opacity: 0.44; fill-rule: nonzero; opacity: 1;" vector-effect="non-scaling-stroke"  transform=" translate(0, 0)" d="M 0 -33.054 C 18.24581 -33.054 33.054 -18.245810000000002 33.054 0 C 33.054 18.24581 18.245810000000002 33.054 0 33.054 C -18.24581 33.054 -33.054 18.245810000000002 -33.054 0 C -33.054 -18.24581 -18.245810000000002 -33.054 0 -33.054 z" stroke-linecap="round" />
</g>
<g transform="matrix(0.07 0 0 0.07 308.43 216.76)" id="nED1D6vxbbBVxWI3a5664"  >
<path style="stroke: rgb(67,231,232); stroke-width: 0; stroke-dasharray: none; stroke-linecap: butt; stroke-dashoffset: 0; stroke-linejoin: miter; stroke-miterlimit: 4; fill: rgb(0,0,0); fill-opacity: 0.44; fill-rule: nonzero; opacity: 1;" vector-effect="non-scaling-stroke"  transform=" translate(0, 0)" d="M 0 -33.054 C 18.24581 -33.054 33.054 -18.245810000000002 33.054 0 C 33.054 18.24581 18.245810000000002 33.054 0 33.054 C -18.24581 33.054 -33.054 18.245810000000002 -33.054 0 C -33.054 -18.24581 -18.245810000000002 -33.054 0 -33.054 z" stroke-linecap="round" />
</g>
<g transform="matrix(0.07 0 0 0.07 308.43 236.52)" id="vyc2A-EberDfdYJG89Jrt"  >
<path style="stroke: rgb(67,231,232); stroke-width: 0; stroke-dasharray: none; stroke-linecap: butt; stroke-dashoffset: 0; stroke-linejoin: miter; stroke-miterlimit: 4; fill: rgb(0,0,0); fill-opacity: 0.44; fill-rule: nonzero; opacity: 1;" vector-effect="non-scaling-stroke"  transform=" translate(0, 0)" d="M 0 -33.054 C 18.24581 -33.054 33.054 -18.245810000000002 33.054 0 C 33.054 18.24581 18.245810000000002 33.054 0 33.054 C -18.24581 33.054 -33.054 18.245810000000002 -33.054 0 C -33.054 -18.24581 -18.245810000000002 -33.054 0 -33.054 z" stroke-linecap="round" />
</g>
<g transform="matrix(0.07 0 0 0.07 308.43 255.47)" id="GiM8aL_jegUr1l35SuJ_z"  >
<path style="stroke: rgb(67,231,232); stroke-width: 0; stroke-dasharray: none; stroke-linecap: butt; stroke-dashoffset: 0; stroke-linejoin: miter; stroke-miterlimit: 4; fill: rgb(0,0,0); fill-opacity: 0.44; fill-rule: nonzero; opacity: 1;" vector-effect="non-scaling-stroke"  transform=" translate(0, 0)" d="M 0 -33.054 C 18.24581 -33.054 33.054 -18.245810000000002 33.054 0 C 33.054 18.24581 18.245810000000002 33.054 0 33.054 C -18.24581 33.054 -33.054 18.245810000000002 -33.054 0 C -33.054 -18.24581 -18.245810000000002 -33.054 0 -33.054 z" stroke-linecap="round" />
</g>
<g transform="matrix(0.07 0 0 0.07 328.27 178.64)" id="rWat5ck096CMX-_V6mjkC"  >
<path style="stroke: rgb(67,231,232); stroke-width: 0; stroke-dasharray: none; stroke-linecap: butt; stroke-dashoffset: 0; stroke-linejoin: miter; stroke-miterlimit: 4; fill: rgb(0,0,0); fill-opacity: 0.44; fill-rule: nonzero; opacity: 1;" vector-effect="non-scaling-stroke"  transform=" translate(0, 0)" d="M 0 -33.054 C 18.24581 -33.054 33.054 -18.245810000000002 33.054 0 C 33.054 18.24581 18.245810000000002 33.054 0 33.054 C -18.24581 33.054 -33.054 18.245810000000002 -33.054 0 C -33.054 -18.24581 -18.245810000000002 -33.054 0 -33.054 z" stroke-linecap="round" />
</g>
<g transform="matrix(0.07 0 0 0.07 328.27 197.81)" id="u3s-BVh49WeqqJ5je6WSX"  >
<path style="stroke: rgb(67,231,232); stroke-width: 0; stroke-dasharray: none; stroke-linecap: butt; stroke-dashoffset: 0; stroke-linejoin: miter; stroke-miterlimit: 4; fill: rgb(0,0,0); fill-opacity: 0.44; fill-rule: nonzero; opacity: 1;" vector-effect="non-scaling-stroke"  transform=" translate(0, 0)" d="M 0 -33.054 C 18.24581 -33.054 33.054 -18.245810000000002 33.054 0 C 33.054 18.24581 18.245810000000002 33.054 0 33.054 C -18.24581 33.054 -33.054 18.245810000000002 -33.054 0 C -33.054 -18.24581 -18.245810000000002 -33.054 0 -33.054 z" stroke-linecap="round" />
</g>
<g transform="matrix(0.07 0 0 0.07 328.27 216.75)" id="ne4wVHw9eLcInb45fiVVs"  >
<path style="stroke: rgb(67,231,232); stroke-width: 0; stroke-dasharray: none; stroke-linecap: butt; stroke-dashoffset: 0; stroke-linejoin: miter; stroke-miterlimit: 4; fill: rgb(0,0,0); fill-opacity: 0.44; fill-rule: nonzero; opacity: 1;" vector-effect="non-scaling-stroke"  transform=" translate(0, 0)" d="M 0 -33.054 C 18.24581 -33.054 33.054 -18.245810000000002 33.054 0 C 33.054 18.24581 18.245810000000002 33.054 0 33.054 C -18.24581 33.054 -33.054 18.245810000000002 -33.054 0 C -33.054 -18.24581 -18.245810000000002 -33.054 0 -33.054 z" stroke-linecap="round" />
</g>
<g transform="matrix(0.07 0 0 0.07 328.27 236.52)" id="BBE-ZNsbZh_1BQmMbV99E"  >
<path style="stroke: rgb(67,231,232); stroke-width: 0; stroke-dasharray: none; stroke-linecap: butt; stroke-dashoffset: 0; stroke-linejoin: miter; stroke-miterlimit: 4; fill: rgb(0,0,0); fill-opacity: 0.44; fill-rule: nonzero; opacity: 1;" vector-effect="non-scaling-stroke"  transform=" translate(0, 0)" d="M 0 -33.054 C 18.24581 -33.054 33.054 -18.245810000000002 33.054 0 C 33.054 18.24581 18.245810000000002 33.054 0 33.054 C -18.24581 33.054 -33.054 18.245810000000002 -33.054 0 C -33.054 -18.24581 -18.245810000000002 -33.054 0 -33.054 z" stroke-linecap="round" />
</g>
<g transform="matrix(0.07 0 0 0.07 328.27 255.47)" id="YaiXzNzXF_Al6QhZr60aO"  >
<path style="stroke: rgb(67,231,232); stroke-width: 0; stroke-dasharray: none; stroke-linecap: butt; stroke-dashoffset: 0; stroke-linejoin: miter; stroke-miterlimit: 4; fill: rgb(0,0,0); fill-opacity: 0.44; fill-rule: nonzero; opacity: 1;" vector-effect="non-scaling-stroke"  transform=" translate(0, 0)" d="M 0 -33.054 C 18.24581 -33.054 33.054 -18.245810000000002 33.054 0 C 33.054 18.24581 18.245810000000002 33.054 0 33.054 C -18.24581 33.054 -33.054 18.245810000000002 -33.054 0 C -33.054 -18.24581 -18.245810000000002 -33.054 0 -33.054 z" stroke-linecap="round" />
</g>
<g transform="matrix(0.07 0 0 0.07 352.7 178.65)" id="JoxDcz19T-WQCuNoXxQcP"  >
<path style="stroke: rgb(67,231,232); stroke-width: 0; stroke-dasharray: none; stroke-linecap: butt; stroke-dashoffset: 0; stroke-linejoin: miter; stroke-miterlimit: 4; fill: rgb(0,0,0); fill-opacity: 0.44; fill-rule: nonzero; opacity: 1;" vector-effect="non-scaling-stroke"  transform=" translate(0, 0)" d="M 0 -33.054 C 18.24581 -33.054 33.054 -18.245810000000002 33.054 0 C 33.054 18.24581 18.245810000000002 33.054 0 33.054 C -18.24581 33.054 -33.054 18.245810000000002 -33.054 0 C -33.054 -18.24581 -18.245810000000002 -33.054 0 -33.054 z" stroke-linecap="round" />
</g>
<g transform="matrix(0.07 0 0 0.07 352.7 197.81)" id="rkkpKhbcqEF_MWWOZdqcS"  >
<path style="stroke: rgb(67,231,232); stroke-width: 0; stroke-dasharray: none; stroke-linecap: butt; stroke-dashoffset: 0; stroke-linejoin: miter; stroke-miterlimit: 4; fill: rgb(0,0,0); fill-opacity: 0.44; fill-rule: nonzero; opacity: 1;" vector-effect="non-scaling-stroke"  transform=" translate(0, 0)" d="M 0 -33.054 C 18.24581 -33.054 33.054 -18.245810000000002 33.054 0 C 33.054 18.24581 18.245810000000002 33.054 0 33.054 C -18.24581 33.054 -33.054 18.245810000000002 -33.054 0 C -33.054 -18.24581 -18.245810000000002 -33.054 0 -33.054 z" stroke-linecap="round" />
</g>
<g transform="matrix(0.07 0 0 0.07 352.7 216.76)" id="lB0QAKAGRmzEPvkxUcf6_"  >
<path style="stroke: rgb(67,231,232); stroke-width: 0; stroke-dasharray: none; stroke-linecap: butt; stroke-dashoffset: 0; stroke-linejoin: miter; stroke-miterlimit: 4; fill: rgb(0,0,0); fill-opacity: 0.44; fill-rule: nonzero; opacity: 1;" vector-effect="non-scaling-stroke"  transform=" translate(0, 0)" d="M 0 -33.054 C 18.24581 -33.054 33.054 -18.245810000000002 33.054 0 C 33.054 18.24581 18.245810000000002 33.054 0 33.054 C -18.24581 33.054 -33.054 18.245810000000002 -33.054 0 C -33.054 -18.24581 -18.245810000000002 -33.054 0 -33.054 z" stroke-linecap="round" />
</g>
<g transform="matrix(0.07 0 0 0.07 352.7 236.53)" id="ohVBitwXtmbPlM1sq-gFN"  >
<path style="stroke: rgb(67,231,232); stroke-width: 0; stroke-dasharray: none; stroke-linecap: butt; stroke-dashoffset: 0; stroke-linejoin: miter; stroke-miterlimit: 4; fill: rgb(0,0,0); fill-opacity: 0.44; fill-rule: nonzero; opacity: 1;" vector-effect="non-scaling-stroke"  transform=" translate(0, 0)" d="M 0 -33.054 C 18.24581 -33.054 33.054 -18.245810000000002 33.054 0 C 33.054 18.24581 18.245810000000002 33.054 0 33.054 C -18.24581 33.054 -33.054 18.245810000000002 -33.054 0 C -33.054 -18.24581 -18.245810000000002 -33.054 0 -33.054 z" stroke-linecap="round" />
</g>
<g transform="matrix(0.07 0 0 0.07 352.7 255.47)" id="QojC7W2MWgVYIt8Zxyid7"  >
<path style="stroke: rgb(67,231,232); stroke-width: 0; stroke-dasharray: none; stroke-linecap: butt; stroke-dashoffset: 0; stroke-linejoin: miter; stroke-miterlimit: 4; fill: rgb(0,0,0); fill-opacity: 0.44; fill-rule: nonzero; opacity: 1;" vector-effect="non-scaling-stroke"  transform=" translate(0, 0)" d="M 0 -33.054 C 18.24581 -33.054 33.054 -18.245810000000002 33.054 0 C 33.054 18.24581 18.245810000000002 33.054 0 33.054 C -18.24581 33.054 -33.054 18.245810000000002 -33.054 0 C -33.054 -18.24581 -18.245810000000002 -33.054 0 -33.054 z" stroke-linecap="round" />
</g>
<g transform="matrix(0.07 0 0 0.07 375.79 178.64)" id="5hI-fDchpRfVNHgiKnDIn"  >
<path style="stroke: rgb(67,231,232); stroke-width: 0; stroke-dasharray: none; stroke-linecap: butt; stroke-dashoffset: 0; stroke-linejoin: miter; stroke-miterlimit: 4; fill: rgb(0,0,0); fill-opacity: 0.44; fill-rule: nonzero; opacity: 1;" vector-effect="non-scaling-stroke"  transform=" translate(0, 0)" d="M 0 -33.054 C 18.24581 -33.054 33.054 -18.245810000000002 33.054 0 C 33.054 18.24581 18.245810000000002 33.054 0 33.054 C -18.24581 33.054 -33.054 18.245810000000002 -33.054 0 C -33.054 -18.24581 -18.245810000000002 -33.054 0 -33.054 z" stroke-linecap="round" />
</g>
<g transform="matrix(0.07 0 0 0.07 375.79 197.81)" id="aS_pB_wUFJx3CFHmEbEF1"  >
<path style="stroke: rgb(67,231,232); stroke-width: 0; stroke-dasharray: none; stroke-linecap: butt; stroke-dashoffset: 0; stroke-linejoin: miter; stroke-miterlimit: 4; fill: rgb(0,0,0); fill-opacity: 0.44; fill-rule: nonzero; opacity: 1;" vector-effect="non-scaling-stroke"  transform=" translate(0, 0)" d="M 0 -33.054 C 18.24581 -33.054 33.054 -18.245810000000002 33.054 0 C 33.054 18.24581 18.245810000000002 33.054 0 33.054 C -18.24581 33.054 -33.054 18.245810000000002 -33.054 0 C -33.054 -18.24581 -18.245810000000002 -33.054 0 -33.054 z" stroke-linecap="round" />
</g>
<g transform="matrix(0.07 0 0 0.07 375.79 216.75)" id="KPpL_aGULWKwI1O1IJpa9"  >
<path style="stroke: rgb(67,231,232); stroke-width: 0; stroke-dasharray: none; stroke-linecap: butt; stroke-dashoffset: 0; stroke-linejoin: miter; stroke-miterlimit: 4; fill: rgb(0,0,0); fill-opacity: 0.44; fill-rule: nonzero; opacity: 1;" vector-effect="non-scaling-stroke"  transform=" translate(0, 0)" d="M 0 -33.054 C 18.24581 -33.054 33.054 -18.245810000000002 33.054 0 C 33.054 18.24581 18.245810000000002 33.054 0 33.054 C -18.24581 33.054 -33.054 18.245810000000002 -33.054 0 C -33.054 -18.24581 -18.245810000000002 -33.054 0 -33.054 z" stroke-linecap="round" />
</g>
<g transform="matrix(0.07 0 0 0.07 375.79 236.52)" id="P8hBs4T47gD1_Nz2mIOT_"  >
<path style="stroke: rgb(67,231,232); stroke-width: 0; stroke-dasharray: none; stroke-linecap: butt; stroke-dashoffset: 0; stroke-linejoin: miter; stroke-miterlimit: 4; fill: rgb(0,0,0); fill-opacity: 0.44; fill-rule: nonzero; opacity: 1;" vector-effect="non-scaling-stroke"  transform=" translate(0, 0)" d="M 0 -33.054 C 18.24581 -33.054 33.054 -18.245810000000002 33.054 0 C 33.054 18.24581 18.245810000000002 33.054 0 33.054 C -18.24581 33.054 -33.054 18.245810000000002 -33.054 0 C -33.054 -18.24581 -18.245810000000002 -33.054 0 -33.054 z" stroke-linecap="round" />
</g>
<g transform="matrix(0.07 0 0 0.07 375.79 255.47)" id="InayG_fgq_NbCwXS89RGa"  >
<path style="stroke: rgb(67,231,232); stroke-width: 0; stroke-dasharray: none; stroke-linecap: butt; stroke-dashoffset: 0; stroke-linejoin: miter; stroke-miterlimit: 4; fill: rgb(0,0,0); fill-opacity: 0.44; fill-rule: nonzero; opacity: 1;" vector-effect="non-scaling-stroke"  transform=" translate(0, 0)" d="M 0 -33.054 C 18.24581 -33.054 33.054 -18.245810000000002 33.054 0 C 33.054 18.24581 18.245810000000002 33.054 0 33.054 C -18.24581 33.054 -33.054 18.245810000000002 -33.054 0 C -33.054 -18.24581 -18.245810000000002 -33.054 0 -33.054 z" stroke-linecap="round" />
</g>
<g transform="matrix(0.07 0 0 0.07 39.54 178.64)" id="_jyADT35HMLNsN7hFCTRC"  >
<path style="stroke: rgb(67,231,232); stroke-width: 0; stroke-dasharray: none; stroke-linecap: butt; stroke-dashoffset: 0; stroke-linejoin: miter; stroke-miterlimit: 4; fill: rgb(0,0,0); fill-opacity: 0.44; fill-rule: nonzero; opacity: 1;" vector-effect="non-scaling-stroke"  transform=" translate(0, 0)" d="M 0 -33.054 C 18.24581 -33.054 33.054 -18.245810000000002 33.054 0 C 33.054 18.24581 18.245810000000002 33.054 0 33.054 C -18.24581 33.054 -33.054 18.245810000000002 -33.054 0 C -33.054 -18.24581 -18.245810000000002 -33.054 0 -33.054 z" stroke-linecap="round" />
</g>
<g transform="matrix(0.07 0 0 0.07 39.54 197.81)" id="d8YMQIYBlJryL-lhipUlD"  >
<path style="stroke: rgb(67,231,232); stroke-width: 0; stroke-dasharray: none; stroke-linecap: butt; stroke-dashoffset: 0; stroke-linejoin: miter; stroke-miterlimit: 4; fill: rgb(0,0,0); fill-opacity: 0.44; fill-rule: nonzero; opacity: 1;" vector-effect="non-scaling-stroke"  transform=" translate(0, 0)" d="M 0 -33.054 C 18.24581 -33.054 33.054 -18.245810000000002 33.054 0 C 33.054 18.24581 18.245810000000002 33.054 0 33.054 C -18.24581 33.054 -33.054 18.245810000000002 -33.054 0 C -33.054 -18.24581 -18.245810000000002 -33.054 0 -33.054 z" stroke-linecap="round" />
</g>
<g transform="matrix(0.07 0 0 0.07 39.54 216.76)" id="9Tw9NPhj_euEofTxW-Nrr"  >
<path style="stroke: rgb(67,231,232); stroke-width: 0; stroke-dasharray: none; stroke-linecap: butt; stroke-dashoffset: 0; stroke-linejoin: miter; stroke-miterlimit: 4; fill: rgb(0,0,0); fill-opacity: 0.44; fill-rule: nonzero; opacity: 1;" vector-effect="non-scaling-stroke"  transform=" translate(0, 0)" d="M 0 -33.054 C 18.24581 -33.054 33.054 -18.245810000000002 33.054 0 C 33.054 18.24581 18.245810000000002 33.054 0 33.054 C -18.24581 33.054 -33.054 18.245810000000002 -33.054 0 C -33.054 -18.24581 -18.245810000000002 -33.054 0 -33.054 z" stroke-linecap="round" />
</g>
<g transform="matrix(0.07 0 0 0.07 39.54 236.52)" id="Z5bfPAAyj0H7b8BrfEUsL"  >
<path style="stroke: rgb(67,231,232); stroke-width: 0; stroke-dasharray: none; stroke-linecap: butt; stroke-dashoffset: 0; stroke-linejoin: miter; stroke-miterlimit: 4; fill: rgb(0,0,0); fill-opacity: 0.44; fill-rule: nonzero; opacity: 1;" vector-effect="non-scaling-stroke"  transform=" translate(0, 0)" d="M 0 -33.054 C 18.24581 -33.054 33.054 -18.245810000000002 33.054 0 C 33.054 18.24581 18.245810000000002 33.054 0 33.054 C -18.24581 33.054 -33.054 18.245810000000002 -33.054 0 C -33.054 -18.24581 -18.245810000000002 -33.054 0 -33.054 z" stroke-linecap="round" />
</g>
<g transform="matrix(0.07 0 0 0.07 39.54 255.48)" id="XpySxBIJ30z-t-nm23Wy8"  >
<path style="stroke: rgb(67,231,232); stroke-width: 0; stroke-dasharray: none; stroke-linecap: butt; stroke-dashoffset: 0; stroke-linejoin: miter; stroke-miterlimit: 4; fill: rgb(0,0,0); fill-opacity: 0.44; fill-rule: nonzero; opacity: 1;" vector-effect="non-scaling-stroke"  transform=" translate(0, 0)" d="M 0 -33.054 C 18.24581 -33.054 33.054 -18.245810000000002 33.054 0 C 33.054 18.24581 18.245810000000002 33.054 0 33.054 C -18.24581 33.054 -33.054 18.245810000000002 -33.054 0 C -33.054 -18.24581 -18.245810000000002 -33.054 0 -33.054 z" stroke-linecap="round" />
</g>
<g transform="matrix(0.07 0 0 0.07 21.53 178.64)" id="B2kxqQH_x-e-f9dB20KTZ"  >
<path style="stroke: rgb(67,231,232); stroke-width: 0; stroke-dasharray: none; stroke-linecap: butt; stroke-dashoffset: 0; stroke-linejoin: miter; stroke-miterlimit: 4; fill: rgb(0,0,0); fill-opacity: 0.44; fill-rule: nonzero; opacity: 1;" vector-effect="non-scaling-stroke"  transform=" translate(0, 0)" d="M 0 -33.054 C 18.24581 -33.054 33.054 -18.245810000000002 33.054 0 C 33.054 18.24581 18.245810000000002 33.054 0 33.054 C -18.24581 33.054 -33.054 18.245810000000002 -33.054 0 C -33.054 -18.24581 -18.245810000000002 -33.054 0 -33.054 z" stroke-linecap="round" />
</g>
<g transform="matrix(0.07 0 0 0.07 21.53 197.81)" id="ofNB9PZXGgzNNWfBb_2AY"  >
<path style="stroke: rgb(67,231,232); stroke-width: 0; stroke-dasharray: none; stroke-linecap: butt; stroke-dashoffset: 0; stroke-linejoin: miter; stroke-miterlimit: 4; fill: rgb(0,0,0); fill-opacity: 0.44; fill-rule: nonzero; opacity: 1;" vector-effect="non-scaling-stroke"  transform=" translate(0, 0)" d="M 0 -33.054 C 18.24581 -33.054 33.054 -18.245810000000002 33.054 0 C 33.054 18.24581 18.245810000000002 33.054 0 33.054 C -18.24581 33.054 -33.054 18.245810000000002 -33.054 0 C -33.054 -18.24581 -18.245810000000002 -33.054 0 -33.054 z" stroke-linecap="round" />
</g>
<g transform="matrix(0.07 0 0 0.07 21.53 216.76)" id="-kCVNSsHYRom2arKhBd5v"  >
<path style="stroke: rgb(67,231,232); stroke-width: 0; stroke-dasharray: none; stroke-linecap: butt; stroke-dashoffset: 0; stroke-linejoin: miter; stroke-miterlimit: 4; fill: rgb(0,0,0); fill-opacity: 0.44; fill-rule: nonzero; opacity: 1;" vector-effect="non-scaling-stroke"  transform=" translate(0, 0)" d="M 0 -33.054 C 18.24581 -33.054 33.054 -18.245810000000002 33.054 0 C 33.054 18.24581 18.245810000000002 33.054 0 33.054 C -18.24581 33.054 -33.054 18.245810000000002 -33.054 0 C -33.054 -18.24581 -18.245810000000002 -33.054 0 -33.054 z" stroke-linecap="round" />
</g>
<g transform="matrix(0.07 0 0 0.07 21.53 236.52)" id="3Oj1TmOhrCQiXsY7OS9my"  >
<path style="stroke: rgb(67,231,232); stroke-width: 0; stroke-dasharray: none; stroke-linecap: butt; stroke-dashoffset: 0; stroke-linejoin: miter; stroke-miterlimit: 4; fill: rgb(0,0,0); fill-opacity: 0.44; fill-rule: nonzero; opacity: 1;" vector-effect="non-scaling-stroke"  transform=" translate(0, 0)" d="M 0 -33.054 C 18.24581 -33.054 33.054 -18.245810000000002 33.054 0 C 33.054 18.24581 18.245810000000002 33.054 0 33.054 C -18.24581 33.054 -33.054 18.245810000000002 -33.054 0 C -33.054 -18.24581 -18.245810000000002 -33.054 0 -33.054 z" stroke-linecap="round" />
</g>
<g transform="matrix(0.07 0 0 0.07 21.53 255.48)" id="R0Nc2ZHXYr37MqTnD1dr6"  >
<path style="stroke: rgb(67,231,232); stroke-width: 0; stroke-dasharray: none; stroke-linecap: butt; stroke-dashoffset: 0; stroke-linejoin: miter; stroke-miterlimit: 4; fill: rgb(0,0,0); fill-opacity: 0.44; fill-rule: nonzero; opacity: 1;" vector-effect="non-scaling-stroke"  transform=" translate(0, 0)" d="M 0 -33.054 C 18.24581 -33.054 33.054 -18.245810000000002 33.054 0 C 33.054 18.24581 18.245810000000002 33.054 0 33.054 C -18.24581 33.054 -33.054 18.245810000000002 -33.054 0 C -33.054 -18.24581 -18.245810000000002 -33.054 0 -33.054 z" stroke-linecap="round" />
</g>
<g transform="matrix(0.07 0 0 0.07 397.52 178.63)" id="DbKcoV5OSmpxVbvG2PTV4"  >
<path style="stroke: rgb(67,231,232); stroke-width: 0; stroke-dasharray: none; stroke-linecap: butt; stroke-dashoffset: 0; stroke-linejoin: miter; stroke-miterlimit: 4; fill: rgb(0,0,0); fill-opacity: 0.44; fill-rule: nonzero; opacity: 1;" vector-effect="non-scaling-stroke"  transform=" translate(0, 0)" d="M 0 -33.054 C 18.24581 -33.054 33.054 -18.245810000000002 33.054 0 C 33.054 18.24581 18.245810000000002 33.054 0 33.054 C -18.24581 33.054 -33.054 18.245810000000002 -33.054 0 C -33.054 -18.24581 -18.245810000000002 -33.054 0 -33.054 z" stroke-linecap="round" />
</g>
<g transform="matrix(0.07 0 0 0.07 397.52 197.79)" id="X0RhJXjPZy4toBdGBGhU6"  >
<path style="stroke: rgb(67,231,232); stroke-width: 0; stroke-dasharray: none; stroke-linecap: butt; stroke-dashoffset: 0; stroke-linejoin: miter; stroke-miterlimit: 4; fill: rgb(0,0,0); fill-opacity: 0.44; fill-rule: nonzero; opacity: 1;" vector-effect="non-scaling-stroke"  transform=" translate(0, 0)" d="M 0 -33.054 C 18.24581 -33.054 33.054 -18.245810000000002 33.054 0 C 33.054 18.24581 18.245810000000002 33.054 0 33.054 C -18.24581 33.054 -33.054 18.245810000000002 -33.054 0 C -33.054 -18.24581 -18.245810000000002 -33.054 0 -33.054 z" stroke-linecap="round" />
</g>
<g transform="matrix(0.07 0 0 0.07 397.52 216.75)" id="5pU6vr1WjdhEclb5-1jnx"  >
<path style="stroke: rgb(67,231,232); stroke-width: 0; stroke-dasharray: none; stroke-linecap: butt; stroke-dashoffset: 0; stroke-linejoin: miter; stroke-miterlimit: 4; fill: rgb(0,0,0); fill-opacity: 0.44; fill-rule: nonzero; opacity: 1;" vector-effect="non-scaling-stroke"  transform=" translate(0, 0)" d="M 0 -33.054 C 18.24581 -33.054 33.054 -18.245810000000002 33.054 0 C 33.054 18.24581 18.245810000000002 33.054 0 33.054 C -18.24581 33.054 -33.054 18.245810000000002 -33.054 0 C -33.054 -18.24581 -18.245810000000002 -33.054 0 -33.054 z" stroke-linecap="round" />
</g>
<g transform="matrix(0.07 0 0 0.07 397.52 236.51)" id="pIYtUXawakKa-4wKlQmZe"  >
<path style="stroke: rgb(67,231,232); stroke-width: 0; stroke-dasharray: none; stroke-linecap: butt; stroke-dashoffset: 0; stroke-linejoin: miter; stroke-miterlimit: 4; fill: rgb(0,0,0); fill-opacity: 0.44; fill-rule: nonzero; opacity: 1;" vector-effect="non-scaling-stroke"  transform=" translate(0, 0)" d="M 0 -33.054 C 18.24581 -33.054 33.054 -18.245810000000002 33.054 0 C 33.054 18.24581 18.245810000000002 33.054 0 33.054 C -18.24581 33.054 -33.054 18.245810000000002 -33.054 0 C -33.054 -18.24581 -18.245810000000002 -33.054 0 -33.054 z" stroke-linecap="round" />
</g>
<g transform="matrix(0.07 0 0 0.07 397.52 255.47)" id="mjATU60ASuGG_jwBUGWIH"  >
<path style="stroke: rgb(67,231,232); stroke-width: 0; stroke-dasharray: none; stroke-linecap: butt; stroke-dashoffset: 0; stroke-linejoin: miter; stroke-miterlimit: 4; fill: rgb(0,0,0); fill-opacity: 0.44; fill-rule: nonzero; opacity: 1;" vector-effect="non-scaling-stroke"  transform=" translate(0, 0)" d="M 0 -33.054 C 18.24581 -33.054 33.054 -18.245810000000002 33.054 0 C 33.054 18.24581 18.245810000000002 33.054 0 33.054 C -18.24581 33.054 -33.054 18.245810000000002 -33.054 0 C -33.054 -18.24581 -18.245810000000002 -33.054 0 -33.054 z" stroke-linecap="round" />
</g>
<g transform="matrix(0.07 0 0 0.07 420.61 178.62)" id="cuTYCTHUtdrwk7U3mgGfz"  >
<path style="stroke: rgb(67,231,232); stroke-width: 0; stroke-dasharray: none; stroke-linecap: butt; stroke-dashoffset: 0; stroke-linejoin: miter; stroke-miterlimit: 4; fill: rgb(0,0,0); fill-opacity: 0.44; fill-rule: nonzero; opacity: 1;" vector-effect="non-scaling-stroke"  transform=" translate(0, 0)" d="M 0 -33.054 C 18.24581 -33.054 33.054 -18.245810000000002 33.054 0 C 33.054 18.24581 18.245810000000002 33.054 0 33.054 C -18.24581 33.054 -33.054 18.245810000000002 -33.054 0 C -33.054 -18.24581 -18.245810000000002 -33.054 0 -33.054 z" stroke-linecap="round" />
</g>
<g transform="matrix(0.07 0 0 0.07 420.61 197.79)" id="m-1cqxT8X5Gfuhr4hWU1S"  >
<path style="stroke: rgb(67,231,232); stroke-width: 0; stroke-dasharray: none; stroke-linecap: butt; stroke-dashoffset: 0; stroke-linejoin: miter; stroke-miterlimit: 4; fill: rgb(0,0,0); fill-opacity: 0.44; fill-rule: nonzero; opacity: 1;" vector-effect="non-scaling-stroke"  transform=" translate(0, 0)" d="M 0 -33.054 C 18.24581 -33.054 33.054 -18.245810000000002 33.054 0 C 33.054 18.24581 18.245810000000002 33.054 0 33.054 C -18.24581 33.054 -33.054 18.245810000000002 -33.054 0 C -33.054 -18.24581 -18.245810000000002 -33.054 0 -33.054 z" stroke-linecap="round" />
</g>
<g transform="matrix(0.07 0 0 0.07 420.61 216.75)" id="qUT9qgIm2nVxwBQ4j0qhu"  >
<path style="stroke: rgb(67,231,232); stroke-width: 0; stroke-dasharray: none; stroke-linecap: butt; stroke-dashoffset: 0; stroke-linejoin: miter; stroke-miterlimit: 4; fill: rgb(0,0,0); fill-opacity: 0.44; fill-rule: nonzero; opacity: 1;" vector-effect="non-scaling-stroke"  transform=" translate(0, 0)" d="M 0 -33.054 C 18.24581 -33.054 33.054 -18.245810000000002 33.054 0 C 33.054 18.24581 18.245810000000002 33.054 0 33.054 C -18.24581 33.054 -33.054 18.245810000000002 -33.054 0 C -33.054 -18.24581 -18.245810000000002 -33.054 0 -33.054 z" stroke-linecap="round" />
</g>
<g transform="matrix(0.07 0 0 0.07 420.61 236.5)" id="knmtSpsCdOcx9lMv_9HD0"  >
<path style="stroke: rgb(67,231,232); stroke-width: 0; stroke-dasharray: none; stroke-linecap: butt; stroke-dashoffset: 0; stroke-linejoin: miter; stroke-miterlimit: 4; fill: rgb(0,0,0); fill-opacity: 0.44; fill-rule: nonzero; opacity: 1;" vector-effect="non-scaling-stroke"  transform=" translate(0, 0)" d="M 0 -33.054 C 18.24581 -33.054 33.054 -18.245810000000002 33.054 0 C 33.054 18.24581 18.245810000000002 33.054 0 33.054 C -18.24581 33.054 -33.054 18.245810000000002 -33.054 0 C -33.054 -18.24581 -18.245810000000002 -33.054 0 -33.054 z" stroke-linecap="round" />
</g>
<g transform="matrix(0.07 0 0 0.07 420.61 255.45)" id="o18zV8rllCNElA_NADO9A"  >
<path style="stroke: rgb(67,231,232); stroke-width: 0; stroke-dasharray: none; stroke-linecap: butt; stroke-dashoffset: 0; stroke-linejoin: miter; stroke-miterlimit: 4; fill: rgb(0,0,0); fill-opacity: 0.44; fill-rule: nonzero; opacity: 1;" vector-effect="non-scaling-stroke"  transform=" translate(0, 0)" d="M 0 -33.054 C 18.24581 -33.054 33.054 -18.245810000000002 33.054 0 C 33.054 18.24581 18.245810000000002 33.054 0 33.054 C -18.24581 33.054 -33.054 18.245810000000002 -33.054 0 C -33.054 -18.24581 -18.245810000000002 -33.054 0 -33.054 z" stroke-linecap="round" />
</g>
<g transform="matrix(0.07 0 0 0.07 440.45 178.62)" id="we5nTRg_qpFxUou6WCIuK"  >
<path style="stroke: rgb(67,231,232); stroke-width: 0; stroke-dasharray: none; stroke-linecap: butt; stroke-dashoffset: 0; stroke-linejoin: miter; stroke-miterlimit: 4; fill: rgb(0,0,0); fill-opacity: 0.44; fill-rule: nonzero; opacity: 1;" vector-effect="non-scaling-stroke"  transform=" translate(0, 0)" d="M 0 -33.054 C 18.24581 -33.054 33.054 -18.245810000000002 33.054 0 C 33.054 18.24581 18.245810000000002 33.054 0 33.054 C -18.24581 33.054 -33.054 18.245810000000002 -33.054 0 C -33.054 -18.24581 -18.245810000000002 -33.054 0 -33.054 z" stroke-linecap="round" />
</g>
<g transform="matrix(0.07 0 0 0.07 440.45 197.79)" id="u6QPsZ39k_83GvwEm_3DC"  >
<path style="stroke: rgb(67,231,232); stroke-width: 0; stroke-dasharray: none; stroke-linecap: butt; stroke-dashoffset: 0; stroke-linejoin: miter; stroke-miterlimit: 4; fill: rgb(0,0,0); fill-opacity: 0.44; fill-rule: nonzero; opacity: 1;" vector-effect="non-scaling-stroke"  transform=" translate(0, 0)" d="M 0 -33.054 C 18.24581 -33.054 33.054 -18.245810000000002 33.054 0 C 33.054 18.24581 18.245810000000002 33.054 0 33.054 C -18.24581 33.054 -33.054 18.245810000000002 -33.054 0 C -33.054 -18.24581 -18.245810000000002 -33.054 0 -33.054 z" stroke-linecap="round" />
</g>
<g transform="matrix(0.07 0 0 0.07 440.45 216.73)" id="3C0lqYB2QkUJ558ZgOjpj"  >
<path style="stroke: rgb(67,231,232); stroke-width: 0; stroke-dasharray: none; stroke-linecap: butt; stroke-dashoffset: 0; stroke-linejoin: miter; stroke-miterlimit: 4; fill: rgb(0,0,0); fill-opacity: 0.44; fill-rule: nonzero; opacity: 1;" vector-effect="non-scaling-stroke"  transform=" translate(0, 0)" d="M 0 -33.054 C 18.24581 -33.054 33.054 -18.245810000000002 33.054 0 C 33.054 18.24581 18.245810000000002 33.054 0 33.054 C -18.24581 33.054 -33.054 18.245810000000002 -33.054 0 C -33.054 -18.24581 -18.245810000000002 -33.054 0 -33.054 z" stroke-linecap="round" />
</g>
<g transform="matrix(0.07 0 0 0.07 440.45 236.5)" id="r48RBt3KSl-om6DF5aYZQ"  >
<path style="stroke: rgb(67,231,232); stroke-width: 0; stroke-dasharray: none; stroke-linecap: butt; stroke-dashoffset: 0; stroke-linejoin: miter; stroke-miterlimit: 4; fill: rgb(0,0,0); fill-opacity: 0.44; fill-rule: nonzero; opacity: 1;" vector-effect="non-scaling-stroke"  transform=" translate(0, 0)" d="M 0 -33.054 C 18.24581 -33.054 33.054 -18.245810000000002 33.054 0 C 33.054 18.24581 18.245810000000002 33.054 0 33.054 C -18.24581 33.054 -33.054 18.245810000000002 -33.054 0 C -33.054 -18.24581 -18.245810000000002 -33.054 0 -33.054 z" stroke-linecap="round" />
</g>
<g transform="matrix(0.07 0 0 0.07 440.45 255.45)" id="49KKOU1V2p7xrwD8MD8TZ"  >
<path style="stroke: rgb(67,231,232); stroke-width: 0; stroke-dasharray: none; stroke-linecap: butt; stroke-dashoffset: 0; stroke-linejoin: miter; stroke-miterlimit: 4; fill: rgb(0,0,0); fill-opacity: 0.44; fill-rule: nonzero; opacity: 1;" vector-effect="non-scaling-stroke"  transform=" translate(0, 0)" d="M 0 -33.054 C 18.24581 -33.054 33.054 -18.245810000000002 33.054 0 C 33.054 18.24581 18.245810000000002 33.054 0 33.054 C -18.24581 33.054 -33.054 18.245810000000002 -33.054 0 C -33.054 -18.24581 -18.245810000000002 -33.054 0 -33.054 z" stroke-linecap="round" />
</g>
<g transform="matrix(0.07 0 0 0.07 464.88 178.63)" id="f3XT2hlV6vEpWbylH8xiw"  >
<path style="stroke: rgb(67,231,232); stroke-width: 0; stroke-dasharray: none; stroke-linecap: butt; stroke-dashoffset: 0; stroke-linejoin: miter; stroke-miterlimit: 4; fill: rgb(0,0,0); fill-opacity: 0.44; fill-rule: nonzero; opacity: 1;" vector-effect="non-scaling-stroke"  transform=" translate(0, 0)" d="M 0 -33.054 C 18.24581 -33.054 33.054 -18.245810000000002 33.054 0 C 33.054 18.24581 18.245810000000002 33.054 0 33.054 C -18.24581 33.054 -33.054 18.245810000000002 -33.054 0 C -33.054 -18.24581 -18.245810000000002 -33.054 0 -33.054 z" stroke-linecap="round" />
</g>
<g transform="matrix(0.07 0 0 0.07 464.88 197.79)" id="1PvfALCWrotm4hDkiG9-1"  >
<path style="stroke: rgb(67,231,232); stroke-width: 0; stroke-dasharray: none; stroke-linecap: butt; stroke-dashoffset: 0; stroke-linejoin: miter; stroke-miterlimit: 4; fill: rgb(0,0,0); fill-opacity: 0.44; fill-rule: nonzero; opacity: 1;" vector-effect="non-scaling-stroke"  transform=" translate(0, 0)" d="M 0 -33.054 C 18.24581 -33.054 33.054 -18.245810000000002 33.054 0 C 33.054 18.24581 18.245810000000002 33.054 0 33.054 C -18.24581 33.054 -33.054 18.245810000000002 -33.054 0 C -33.054 -18.24581 -18.245810000000002 -33.054 0 -33.054 z" stroke-linecap="round" />
</g>
<g transform="matrix(0.07 0 0 0.07 464.88 216.75)" id="83aBASS1hvMVD-YVJ9Qff"  >
<path style="stroke: rgb(67,231,232); stroke-width: 0; stroke-dasharray: none; stroke-linecap: butt; stroke-dashoffset: 0; stroke-linejoin: miter; stroke-miterlimit: 4; fill: rgb(0,0,0); fill-opacity: 0.44; fill-rule: nonzero; opacity: 1;" vector-effect="non-scaling-stroke"  transform=" translate(0, 0)" d="M 0 -33.054 C 18.24581 -33.054 33.054 -18.245810000000002 33.054 0 C 33.054 18.24581 18.245810000000002 33.054 0 33.054 C -18.24581 33.054 -33.054 18.245810000000002 -33.054 0 C -33.054 -18.24581 -18.245810000000002 -33.054 0 -33.054 z" stroke-linecap="round" />
</g>
<g transform="matrix(0.07 0 0 0.07 464.88 236.51)" id="Jv3tsPaIa-TPyftBB8nZr"  >
<path style="stroke: rgb(67,231,232); stroke-width: 0; stroke-dasharray: none; stroke-linecap: butt; stroke-dashoffset: 0; stroke-linejoin: miter; stroke-miterlimit: 4; fill: rgb(0,0,0); fill-opacity: 0.44; fill-rule: nonzero; opacity: 1;" vector-effect="non-scaling-stroke"  transform=" translate(0, 0)" d="M 0 -33.054 C 18.24581 -33.054 33.054 -18.245810000000002 33.054 0 C 33.054 18.24581 18.245810000000002 33.054 0 33.054 C -18.24581 33.054 -33.054 18.245810000000002 -33.054 0 C -33.054 -18.24581 -18.245810000000002 -33.054 0 -33.054 z" stroke-linecap="round" />
</g>
<g transform="matrix(0.07 0 0 0.07 464.88 255.45)" id="OwKMD467V7L3eezhYVNOf"  >
<path style="stroke: rgb(67,231,232); stroke-width: 0; stroke-dasharray: none; stroke-linecap: butt; stroke-dashoffset: 0; stroke-linejoin: miter; stroke-miterlimit: 4; fill: rgb(0,0,0); fill-opacity: 0.44; fill-rule: nonzero; opacity: 1;" vector-effect="non-scaling-stroke"  transform=" translate(0, 0)" d="M 0 -33.054 C 18.24581 -33.054 33.054 -18.245810000000002 33.054 0 C 33.054 18.24581 18.245810000000002 33.054 0 33.054 C -18.24581 33.054 -33.054 18.245810000000002 -33.054 0 C -33.054 -18.24581 -18.245810000000002 -33.054 0 -33.054 z" stroke-linecap="round" />
</g>
<g transform="matrix(0.07 0 0 0.07 487.97 178.62)" id="9AGmTQh7iq3OLoA8BdZcp"  >
<path style="stroke: rgb(67,231,232); stroke-width: 0; stroke-dasharray: none; stroke-linecap: butt; stroke-dashoffset: 0; stroke-linejoin: miter; stroke-miterlimit: 4; fill: rgb(0,0,0); fill-opacity: 0.44; fill-rule: nonzero; opacity: 1;" vector-effect="non-scaling-stroke"  transform=" translate(0, 0)" d="M 0 -33.054 C 18.24581 -33.054 33.054 -18.245810000000002 33.054 0 C 33.054 18.24581 18.245810000000002 33.054 0 33.054 C -18.24581 33.054 -33.054 18.245810000000002 -33.054 0 C -33.054 -18.24581 -18.245810000000002 -33.054 0 -33.054 z" stroke-linecap="round" />
</g>
<g transform="matrix(0.07 0 0 0.07 487.97 197.79)" id="5qgTpG0cjJ-SrDLijprn5"  >
<path style="stroke: rgb(67,231,232); stroke-width: 0; stroke-dasharray: none; stroke-linecap: butt; stroke-dashoffset: 0; stroke-linejoin: miter; stroke-miterlimit: 4; fill: rgb(0,0,0); fill-opacity: 0.44; fill-rule: nonzero; opacity: 1;" vector-effect="non-scaling-stroke"  transform=" translate(0, 0)" d="M 0 -33.054 C 18.24581 -33.054 33.054 -18.245810000000002 33.054 0 C 33.054 18.24581 18.245810000000002 33.054 0 33.054 C -18.24581 33.054 -33.054 18.245810000000002 -33.054 0 C -33.054 -18.24581 -18.245810000000002 -33.054 0 -33.054 z" stroke-linecap="round" />
</g>
<g transform="matrix(0.07 0 0 0.07 487.97 216.73)" id="7SUuovhiXSnPrwXAT85gt"  >
<path style="stroke: rgb(67,231,232); stroke-width: 0; stroke-dasharray: none; stroke-linecap: butt; stroke-dashoffset: 0; stroke-linejoin: miter; stroke-miterlimit: 4; fill: rgb(0,0,0); fill-opacity: 0.44; fill-rule: nonzero; opacity: 1;" vector-effect="non-scaling-stroke"  transform=" translate(0, 0)" d="M 0 -33.054 C 18.24581 -33.054 33.054 -18.245810000000002 33.054 0 C 33.054 18.24581 18.245810000000002 33.054 0 33.054 C -18.24581 33.054 -33.054 18.245810000000002 -33.054 0 C -33.054 -18.24581 -18.245810000000002 -33.054 0 -33.054 z" stroke-linecap="round" />
</g>
<g transform="matrix(0.07 0 0 0.07 487.97 236.5)" id="iXRMCFJgnYCxuOVarKpXJ"  >
<path style="stroke: rgb(67,231,232); stroke-width: 0; stroke-dasharray: none; stroke-linecap: butt; stroke-dashoffset: 0; stroke-linejoin: miter; stroke-miterlimit: 4; fill: rgb(0,0,0); fill-opacity: 0.44; fill-rule: nonzero; opacity: 1;" vector-effect="non-scaling-stroke"  transform=" translate(0, 0)" d="M 0 -33.054 C 18.24581 -33.054 33.054 -18.245810000000002 33.054 0 C 33.054 18.24581 18.245810000000002 33.054 0 33.054 C -18.24581 33.054 -33.054 18.245810000000002 -33.054 0 C -33.054 -18.24581 -18.245810000000002 -33.054 0 -33.054 z" stroke-linecap="round" />
</g>
<g transform="matrix(0.07 0 0 0.07 487.97 255.45)" id="Iv0fQIJW5R0sf5pWtecSg"  >
<path style="stroke: rgb(67,231,232); stroke-width: 0; stroke-dasharray: none; stroke-linecap: butt; stroke-dashoffset: 0; stroke-linejoin: miter; stroke-miterlimit: 4; fill: rgb(0,0,0); fill-opacity: 0.44; fill-rule: nonzero; opacity: 1;" vector-effect="non-scaling-stroke"  transform=" translate(0, 0)" d="M 0 -33.054 C 18.24581 -33.054 33.054 -18.245810000000002 33.054 0 C 33.054 18.24581 18.245810000000002 33.054 0 33.054 C -18.24581 33.054 -33.054 18.245810000000002 -33.054 0 C -33.054 -18.24581 -18.245810000000002 -33.054 0 -33.054 z" stroke-linecap="round" />
</g>
<g transform="matrix(1 0 0 1 460.71 250.38)" id="y_Q70x4_xIl53WK7Snvbt"  >
<path style="stroke: rgb(0,0,0); stroke-width: 1; stroke-dasharray: none; stroke-linecap: round; stroke-dashoffset: 0; stroke-linejoin: round; stroke-miterlimit: 10; fill: none; fill-rule: nonzero; opacity: 1;" vector-effect="non-scaling-stroke"  transform=" translate(-457.59, -198.58)" d="M 457.58447008547057 198.58440170940173 L 457.5864700854705 198.58440170940173" stroke-linecap="round" />
</g>
</svg>